<?xml version="1.0" standalone="no"?>
<!DOCTYPE svg PUBLIC "-//W3C//DTD SVG 1.1//EN" "http://www.w3.org/Graphics/SVG/1.1/DTD/svg11.dtd" >
<svg xmlns="http://www.w3.org/2000/svg">
<metadata>Generated by IcoMoon</metadata>
<defs>
<font id="g-icon" horiz-adv-x="1024">
<font-face units-per-em="1024" ascent="960" descent="-64" />
<missing-glyph horiz-adv-x="1024" />
<glyph unicode="&#x20;" horiz-adv-x="512" d="" />
<glyph unicode="&#xe900;" glyph-name="icon-1" d="M911.872 233.165c0-87.654-4.915-153.19-14.643-196.506-5.222-22.118-16.077-40.653-32.563-55.603s-35.533-23.552-57.242-25.805c-68.915-7.885-172.851-11.776-311.706-11.776-138.957 0-242.79 3.891-311.706 11.776-21.709 2.253-40.858 10.854-57.549 25.805s-27.341 33.485-32.256 55.603c-9.728 41.882-14.643 107.418-14.643 196.506 0 87.654 4.915 153.088 14.643 196.506 5.222 22.118 16.077 40.653 32.563 55.603s35.738 23.757 57.856 26.419c68.506 7.475 172.237 11.264 311.091 11.264s242.79-3.789 311.706-11.264c21.709-2.662 40.858-11.469 57.549-26.419 16.589-14.95 27.443-33.485 32.256-55.603 9.83-41.882 14.643-107.418 14.643-196.506zM257.126 372.941h60.109v52.838h-175.206v-52.838h58.982v-319.488h56.115v319.488zM351.437 949.76h57.242l-67.994-224.051v-152.269h-56.115v152.269c-5.222 27.648-16.691 67.277-34.304 118.989-13.824 38.605-25.907 73.626-36.454 105.062h59.597l39.834-147.763 38.195 147.763zM418.816 53.453h49.971v277.402h-49.971v-212.275c-11.264-15.77-21.914-23.552-32.051-23.552-6.758 0-10.65 3.891-11.776 11.776-0.41 1.126-0.614 7.68-0.614 19.661v204.39h-49.971v-219.546c0-18.33 1.434-32.051 4.506-41.062 4.506-13.824 15.36-20.685 32.563-20.685 18.022 0 37.069 11.366 57.242 34.202v-30.31zM559.206 762.675v-98.304c0-30.31-5.222-52.429-15.77-66.253-13.824-19.046-33.69-28.672-59.494-28.672-25.088 0-44.749 9.626-58.982 28.672-10.547 14.234-15.77 36.25-15.77 66.253v98.304c0 30.003 5.222 51.814 15.77 65.638 14.234 19.149 33.894 28.672 58.982 28.672 25.805 0 45.67-9.523 59.494-28.672 10.547-13.722 15.77-35.635 15.77-65.638zM508.109 654.95v117.965c0 25.805-7.987 38.707-24.166 38.707s-24.166-12.902-24.166-38.707v-117.965c0-26.214 7.987-39.322 24.166-39.322s24.166 13.107 24.166 39.322zM659.763 136.499v110.592c0 27.341-1.638 45.875-5.018 55.603-6.349 20.992-19.661 31.437-39.834 31.437-18.739 0-36.147-10.035-52.224-30.31v121.856h-49.971v-372.326h49.971v26.931c16.794-20.685 34.202-30.925 52.224-30.925 20.275 0 33.485 10.24 39.834 30.925 3.277 10.24 5.018 28.979 5.018 56.218zM609.792 251.085v-118.477c0-25.088-7.373-37.581-21.914-37.581-8.602 0-16.998 4.096-25.293 12.39v168.96c8.192 8.192 16.589 12.39 25.293 12.39 14.541 0 21.914-12.595 21.914-37.683zM747.315 853.709v-280.269h-51.098v30.925c-19.866-23.142-39.117-34.816-57.856-34.816-17.203 0-28.262 6.963-33.178 20.787-2.97 9.011-4.506 23.040-4.506 42.086v221.286h51.098v-206.131c0-12.288 0.205-18.842 0.614-19.661 1.126-8.192 5.018-12.288 11.776-12.288 10.138 0 20.787 7.987 32.051 24.064v214.016h51.098zM849.613 142.234v7.27h-51.098c0-19.046-0.41-30.515-1.126-34.202-2.662-13.517-10.138-20.275-22.426-20.275-17.203 0-25.805 12.902-25.805 38.707v48.845h100.557v57.856c0 29.594-5.12 51.302-15.155 65.126-14.541 19.149-34.406 28.672-59.494 28.672-25.498 0-45.466-9.523-60.109-28.672-10.445-13.824-15.77-35.533-15.77-65.126v-97.178c0-29.594 5.427-51.302 16.282-65.229 14.541-19.046 34.816-28.57 60.621-28.57 26.931 0 47.206 9.933 60.621 29.696 6.758 10.035 10.65 20.275 11.776 30.31 0.717 3.482 1.126 14.336 1.126 32.768zM799.539 250.573v-25.805h-50.483v25.805c0 25.498 8.397 38.195 25.293 38.195 16.794 0 25.19-12.8 25.19-38.195z" />
<glyph unicode="&#xe901;" glyph-name="icon-2" d="M1017.754 820.838v-749.261c0-35.43-12.698-65.843-37.99-91.136-25.395-25.395-55.808-38.093-91.238-38.093h-749.158c-35.43 0-65.843 12.698-91.238 38.093s-37.99 55.808-37.99 91.136v749.261c0 35.43 12.698 65.843 37.99 91.136 25.395 25.395 55.808 38.093 91.238 38.093h749.158c35.43 0 65.843-12.698 91.238-38.093 25.293-25.293 37.99-55.706 37.99-91.136zM903.68 98.509v425.165h-88.576c8.704-27.546 13.107-56.218 13.107-86.016 0-55.091-14.029-105.882-41.984-152.474s-66.048-83.456-114.176-110.49c-48.128-27.136-100.557-40.653-157.491-40.653-86.118 0-159.846 29.594-221.082 88.883-61.235 59.187-91.853 130.867-91.853 214.733 0 29.798 4.403 58.47 13.107 86.016h-92.467v-425.165c0-11.366 3.789-20.89 11.469-28.467 7.68-7.68 17.203-11.469 28.57-11.469h701.338c10.957 0 20.378 3.789 28.262 11.469s11.776 17.101 11.776 28.467zM657.92 309.453c39.526 38.298 59.392 84.48 59.392 138.752s-19.763 100.454-59.392 138.752c-39.629 38.298-87.347 57.446-143.36 57.446-55.501 0-103.117-19.149-142.746-57.446-39.526-38.298-59.392-84.48-59.392-138.752s19.763-100.454 59.392-138.752c39.629-38.298 87.142-57.446 142.746-57.446 56.013 0.102 103.731 19.251 143.36 57.446zM903.68 684.442v108.237c0 12.288-4.403 22.835-13.107 31.846-8.704 8.909-19.456 13.414-32.154 13.414h-114.278c-12.698 0-23.347-4.506-32.154-13.414-8.704-9.011-13.107-19.661-13.107-31.846v-108.237c0-12.698 4.403-23.45 13.107-32.154 8.704-8.806 19.456-13.107 32.154-13.107h114.176c12.698 0 23.347 4.301 32.154 13.107 8.806 8.704 13.21 19.456 13.21 32.154z" />
<glyph unicode="&#xe902;" glyph-name="icon-3" d="M1018.266 766.362c-28.774-41.984-63.386-77.722-104.038-107.213 0.41-6.042 0.717-15.053 0.717-26.931 0-55.706-8.090-111.206-24.371-166.707-16.282-55.398-40.96-108.646-74.138-159.642-33.178-50.893-72.704-95.949-118.477-135.168-45.773-39.117-101.069-70.451-165.683-93.696-64.819-23.45-133.939-35.123-207.667-35.123-116.019 0-222.208 31.027-318.464 93.082 14.95-1.741 31.642-2.56 50.074-2.56 96.358 0 182.17 29.491 257.536 88.678-44.954 0.819-85.197 14.643-120.73 41.37s-60.006 60.928-73.216 102.502c14.131-2.15 27.238-3.277 39.219-3.277 18.432 0 36.557 2.355 54.579 7.066-47.923 9.83-87.654 33.69-119.091 71.578s-47.206 81.92-47.206 131.994v2.662c29.082-16.282 60.416-25.088 93.798-26.317-28.262 18.842-50.79 43.52-67.482 73.83-16.691 30.413-25.088 63.386-25.088 98.918 0 37.683 9.421 72.602 28.262 104.653 51.814-63.795 114.893-114.893 189.133-153.19s153.805-59.699 238.592-63.898c-3.379 16.282-5.12 32.154-5.12 47.514 0 57.446 20.275 106.291 60.723 146.739s89.395 60.723 146.739 60.723c59.904 0 110.49-21.811 151.552-65.536 46.592 9.011 90.522 25.702 131.584 50.074-15.872-49.254-46.285-87.347-91.136-114.278 39.731 4.301 79.565 14.95 119.398 32.154z" />
<glyph unicode="&#xe903;" glyph-name="icon-4" d="M775.885 945.459v-160.666h-95.539c-34.918 0-58.368-7.27-70.554-21.914s-18.227-36.557-18.227-65.741v-114.995h178.278l-23.757-180.122h-154.624v-461.926h-186.163v461.926h-155.136v180.122h155.238v132.71c0 75.469 21.094 133.939 63.283 175.616 42.086 41.574 98.304 62.362 168.448 62.362 59.699 0 105.984-2.458 138.752-7.373z" />
<glyph unicode="&#xe904;" glyph-name="icon-5" d="M1013.658 688.538c7.987-22.221-18.125-73.421-78.336-153.498-8.397-11.162-19.661-25.907-33.997-44.339-13.926-17.715-23.45-30.31-28.672-37.581s-10.547-15.872-15.974-25.805c-5.427-9.933-7.475-17.203-6.246-21.914s3.482-10.752 6.758-18.022c3.277-7.27 8.909-14.746 16.998-22.426 7.987-7.68 17.92-16.896 29.798-27.648 1.434-0.717 2.253-1.434 2.56-2.048 49.050-45.568 82.33-84.070 99.738-115.405 1.024-1.741 2.15-3.891 3.379-6.554 1.229-2.56 2.458-7.27 3.686-13.824 1.229-6.656 1.126-12.493-0.307-17.715s-5.734-10.035-13.005-14.336c-7.27-4.301-17.613-6.554-30.822-6.554l-133.632-2.048c-8.294-1.741-18.125-0.819-29.286 2.662s-20.173 7.27-27.136 11.469l-10.445 6.246c-10.445 7.27-22.63 18.432-36.557 33.485-13.926 14.95-25.805 28.467-35.738 40.448s-20.582 22.118-31.846 30.31c-11.366 8.192-21.197 10.854-29.491 8.090-1.024-0.41-2.458-0.922-4.198-1.843s-4.71-3.379-8.909-7.578c-4.198-4.198-7.885-9.318-11.264-15.462-3.277-6.042-6.246-15.155-8.909-27.136-2.56-11.981-3.686-25.498-3.379-40.448 0-5.222-0.614-10.035-1.843-14.336s-2.56-7.578-3.994-9.626l-2.048-2.56c-6.246-6.656-15.462-10.445-27.648-11.469h-60.006c-24.678-1.434-50.074 1.536-76.186 8.602-26.112 7.168-49.050 16.384-68.71 27.648-19.661 11.366-37.581 22.835-53.76 34.509s-28.467 21.709-36.864 30.003l-13.005 12.493c-3.482 3.482-8.294 8.704-14.336 15.667s-18.534 22.835-37.274 47.514c-18.739 24.678-37.274 50.995-55.296 78.848-18.125 27.853-39.424 64.614-64 110.182-24.474 45.158-47.206 92.57-68.096 141.619-2.048 5.53-3.072 10.24-3.072 14.131s0.512 6.656 1.536 8.294l2.048 3.174c5.222 6.656 15.155 9.933 29.798 9.933l143.053 1.024c4.198-0.717 8.192-1.843 11.981-3.379s6.656-3.072 8.294-4.403l2.662-1.536c5.53-3.789 9.728-9.421 12.493-16.691 6.963-17.408 14.95-35.43 23.962-54.067s16.179-32.768 21.402-42.496l8.294-15.155c10.138-20.89 19.866-39.014 29.286-54.272 9.421-15.36 17.818-27.238 25.293-35.738s14.643-15.155 21.709-20.070c6.963-4.813 12.902-7.27 17.715-7.27s9.523 0.922 14.029 2.662c0.717 0.307 1.536 1.229 2.662 2.56 1.024 1.434 3.072 5.222 6.246 11.469s5.53 14.438 7.066 24.474c1.536 10.138 3.174 24.166 5.018 42.291 1.741 18.125 1.741 39.834 0 65.229-0.717 13.926-2.253 26.624-4.71 38.093s-4.813 19.456-7.27 23.962l-3.174 6.246c-8.704 11.878-23.45 19.354-44.339 22.426-4.506 0.717-3.686 4.813 2.662 12.493 5.53 6.656 12.186 11.878 19.763 15.667 18.432 9.114 60.006 13.21 124.826 12.493 28.57-0.41 52.019-2.662 70.451-6.758 6.963-1.741 12.8-4.096 17.51-7.066s8.294-7.168 10.752-12.493c2.458-5.325 4.198-10.957 5.53-16.691 1.229-5.734 1.843-13.619 1.843-23.757s-0.205-19.661-0.512-28.672c-0.307-9.114-0.717-21.299-1.229-36.864-0.512-15.462-0.819-29.798-0.819-43.008 0-3.789-0.205-11.162-0.512-21.914-0.41-10.752-0.41-19.149-0.205-25.088s0.717-13.005 1.843-21.094c1.024-8.192 3.072-14.95 6.042-20.378 2.97-5.325 6.861-9.626 11.776-12.8 2.765-0.717 5.734-1.434 8.806-2.048 3.174-0.717 7.68 1.229 13.619 5.734s12.493 10.547 19.866 18.022c7.27 7.475 16.384 19.149 27.136 35.021s22.63 34.611 35.533 56.115c20.89 36.25 39.526 75.366 55.91 117.453 1.434 3.482 3.072 6.554 5.222 9.114 2.15 2.662 3.994 4.506 5.734 5.53l2.048 1.536c0.717 0.41 1.536 0.819 2.56 1.331s3.277 1.024 6.758 1.536 6.963 0.614 10.445 0.205l150.323 1.024c13.517 1.741 24.678 1.229 33.382-1.331 8.704-2.662 14.131-5.53 16.179-8.602l3.072-5.222z" />
<glyph unicode="&#xe905;" glyph-name="icon-6" d="M57.549-54.004c-11.878 0-23.040 4.608-31.539 13.005-17.51 17.306-17.715 45.773-0.41 63.386l423.629 423.629-423.424 423.834c-7.066 6.758-11.981 16.691-13.107 27.238-2.355 25.088 15.77 47.002 40.346 49.357 15.77 2.15 28.774-4.915 37.274-14.029l422.605-422.605 423.424 423.424c7.475 7.885 18.33 12.902 30.208 13.312 0.102 0 0.102 0 0.102 0 14.131 0 25.805-5.018 34.202-13.722 17.101-17.818 16.589-46.182-1.126-63.283l-423.219-423.526 423.424-423.424c17.306-18.022 16.998-46.182-0.205-63.386-17.408-17.101-46.592-16.896-63.488 0.102l-423.424 423.424-423.322-423.424c-8.397-8.499-19.763-13.312-31.949-13.312z" />
<glyph unicode="&#xe906;" glyph-name="icon-7" d="M510.976 171.827l-494.182 494.182 54.989 54.989 439.194-439.194 439.194 439.194 54.989-54.989z" />
<glyph unicode="&#xe907;" glyph-name="icon-8" d="M510.976 720.998l494.182-494.182-54.989-54.989-439.194 439.194-439.194-439.194-54.989 54.989z" />
<glyph unicode="&#xe908;" glyph-name="icon-9" d="M236.442 446.362l494.080 494.182 54.989-54.989-439.091-439.194 439.091-439.091-54.989-54.989z" />
<glyph unicode="&#xe909;" glyph-name="icon-10" d="M785.51 446.362l-494.080-494.080-54.989 54.989 439.091 439.091-439.091 439.194 54.989 54.989z" />
<glyph unicode="&#xe90a;" glyph-name="icon-11" d="M9.216 464.384h961.536v-31.744h-961.536v31.744zM869.683 313.242l-22.63 24.269 119.808 111.411-119.808 111.309 22.63 24.371 145.92-135.68z" />
<glyph unicode="&#xe90b;" glyph-name="icon-12" d="M54.067 465.203h961.536v-31.744h-961.536v31.744zM155.136 584.602l22.63-24.269-119.808-111.411 119.808-111.309-22.63-24.371-145.92 135.68z" />
<glyph unicode="&#xe90c;" glyph-name="icon-13" d="M1010.995 808.96l-440.627-724.89c-6.554-11.981-21.709-15.155-33.69-7.578l-121.446 82.432-122.573-81.306c-9.728-6.554-22.835 0-22.835 11.878v169.37l558.797 417.69-659.661-349.286-145.408 99.738c-16.282 10.854-13.005 34.714 5.53 41.267l973.312 351.539c6.451 3.277 12.8-4.301 8.602-10.854z" />
<glyph unicode="&#xe90d;" glyph-name="icon-14" d="M513.536-56.627l-19.866 27.443c-10.138 14.029-248.934 343.757-298.189 467.763-17.818 45.158-26.931 92.877-26.931 142.029 0 201.83 154.829 365.978 345.088 365.978s344.986-164.147 344.986-365.978c0-49.152-9.011-96.87-26.931-141.926-49.254-124.006-288.051-453.837-298.189-467.866l-19.968-27.443zM513.536 897.229c-163.123 0-295.834-142.029-295.834-316.723 0-42.803 7.885-84.48 23.45-123.802 39.014-98.099 212.992-345.805 272.384-429.158 59.392 83.354 233.37 331.059 272.282 429.158 15.565 39.219 23.45 80.896 23.45 123.802 0.102 174.694-132.608 316.723-295.731 316.723zM511.283 453.53c-81.51 0-147.866 66.355-147.866 147.866s66.355 147.866 147.866 147.866 147.866-66.355 147.866-147.866-66.355-147.866-147.866-147.866zM511.283 724.685c-67.994 0-123.187-55.296-123.187-123.187s55.296-123.187 123.187-123.187 123.187 55.296 123.187 123.187-55.296 123.187-123.187 123.187z" />
<glyph unicode="&#xe90e;" glyph-name="icon-15" d="M638.362 587.162l-107.622-107.622c-11.981 7.066-26.829 7.066-38.707 0l-204.8 205.005c-3.789 3.686-9.728 3.686-13.517 0-3.686-3.789-3.686-9.83 0-13.517l205.005-204.902c-8.602-14.643-6.758-33.792 5.734-46.387 14.95-14.95 39.117-14.95 54.067 0 12.493 12.595 14.336 31.744 5.734 46.387l107.725 107.622c3.789 3.686 3.686 9.728 0 13.517-3.789 3.686-9.83 3.686-13.619-0.102zM155.648 802.611c-196.506-196.608-196.506-515.174 0-711.68s515.174-196.506 711.68 0c196.506 196.506 196.506 515.174 0 711.68-196.608 196.506-515.174 196.506-711.68 0zM928.973 626.79l-55.091-22.835c-3.379-1.331-4.915-5.222-3.584-8.602 1.434-3.379 5.222-4.915 8.602-3.482l55.091 22.733c20.582-51.814 31.232-106.496 31.949-161.382h-59.494c-3.686 0-6.554-2.867-6.554-6.554s2.97-6.554 6.554-6.554h59.494c-0.819-54.886-11.366-109.67-31.949-161.382l-55.091 22.835c-3.379 1.434-7.168-0.205-8.602-3.584-1.331-3.277 0.205-7.168 3.584-8.499l55.091-22.835c-21.299-49.459-51.814-95.846-91.443-136.704l-42.086 41.984c-2.662 2.662-6.758 2.662-9.216 0-2.56-2.56-2.56-6.656 0-9.216l41.984-42.086c-40.755-39.629-87.142-70.144-136.704-91.443l-22.835 55.091c-1.331 3.379-5.222 4.915-8.602 3.482-3.277-1.331-4.915-5.222-3.482-8.499l22.835-55.091c-51.814-20.582-106.496-31.232-161.382-31.949v59.494c0 3.686-2.97 6.554-6.656 6.554-3.584 0-6.554-2.867-6.554-6.554v-59.494c-54.886 0.717-109.568 11.366-161.382 31.949l22.835 55.091c1.434 3.379-0.205 7.168-3.482 8.499-3.379 1.434-7.27-0.205-8.602-3.482l-22.733-55.091c-49.459 21.299-95.949 51.814-136.704 91.443l42.086 42.086c2.56 2.56 2.56 6.656 0 9.216-2.662 2.662-6.656 2.662-9.318 0l-42.086-41.984c-39.629 40.858-70.144 87.245-91.443 136.704l55.091 22.835c3.379 1.331 4.915 5.222 3.584 8.499-1.331 3.482-5.222 5.018-8.602 3.584l-55.091-22.733c-20.582 51.712-31.13 106.394-31.949 161.382h59.494c3.686 0 6.656 2.867 6.656 6.554s-2.97 6.554-6.656 6.554h-59.699c0.819 54.886 11.469 109.568 31.949 161.382l55.091-22.733c3.379-1.434 7.168 0.205 8.602 3.584 1.331 3.379-0.205 7.168-3.584 8.499l-55.091 22.835c21.402 49.459 51.814 95.846 91.443 136.704l42.086-42.086c2.56-2.56 6.656-2.56 9.318 0 2.56 2.56 2.56 6.758 0 9.318l-42.086 42.086c40.755 39.731 87.245 70.144 136.704 91.443l22.835-54.989c1.331-3.379 5.222-4.915 8.499-3.584 3.379 1.331 5.018 5.222 3.584 8.499l-22.835 55.194c51.814 20.48 106.496 31.13 161.382 31.949v-59.494c0-3.584 2.867-6.554 6.554-6.554s6.554 2.97 6.656 6.554v59.392c54.784-0.819 109.568-11.469 161.382-31.949l-22.733-55.194c-1.434-3.277 0.205-7.168 3.482-8.499 3.379-1.331 7.27 0.205 8.602 3.584l22.835 54.989c49.459-21.197 95.949-51.712 136.704-91.443l-42.086-42.086c-2.56-2.56-2.56-6.758 0-9.318s6.758-2.56 9.318 0l42.086 42.086c39.526-40.858 70.042-87.245 91.443-136.704z" />
<glyph unicode="&#xe90f;" glyph-name="icon-16" d="M510.976-51.814c-275.558 0-499.712 224.154-499.712 499.712s224.154 499.712 499.712 499.712 499.712-224.154 499.712-499.712-224.154-499.712-499.712-499.712zM510.976 894.976c-246.579 0-447.078-200.602-447.078-447.078s200.499-447.181 447.078-447.181 447.078 200.602 447.078 447.078-200.499 447.181-447.078 447.181zM469.914 174.285h-126.771v547.123h233.779c49.254 0 95.334-20.89 129.741-58.573 32.461-35.533 50.995-82.842 50.995-129.741 0.102-49.664-19.456-96.563-54.989-132.198-35.226-35.328-82.637-55.501-129.946-55.501v0h-102.81v-171.11zM369.459 200.602h74.138v171.008h128.922c40.653 0 81.203 17.408 111.514 47.821 30.515 30.618 47.411 70.963 47.309 113.562 0.102 40.448-15.974 81.306-44.032 112.026-29.389 32.256-68.608 49.971-110.387 50.074h-207.462v-494.49zM570.573 441.037h-125.747v183.706h126.976c42.291 0 87.245-37.376 87.245-92.877 0-50.79-38.81-90.726-88.474-90.829zM471.142 467.354h99.43c35.43 0.102 62.259 27.75 62.259 64.41 0 39.219-32.051 66.662-60.723 66.662h-100.864v-131.072z" />
<glyph unicode="&#xe910;" glyph-name="icon-17" d="M511.59-56.832l-22.016 29.389c-10.445 13.926-256.41 343.142-307.2 467.149-18.534 45.363-27.955 93.491-27.955 142.95 0 202.854 160.154 367.821 357.171 367.821 196.915 0 357.069-165.069 357.069-367.821 0-49.562-9.421-97.587-27.955-142.95-50.79-124.006-296.653-453.222-307.098-467.149l-22.016-29.389zM511.59 895.488c-166.605 0-302.182-140.39-302.182-312.934 0-42.291 7.987-83.354 23.859-122.061 39.629-96.768 215.859-340.378 278.323-425.267 62.464 84.89 238.592 328.499 278.221 425.267 15.872 38.605 23.859 79.77 23.859 122.061 0.102 172.544-135.475 312.934-302.080 312.934zM600.371 447.181h-8.499v-14.336c0-6.451 5.12-11.674 11.366-11.674h20.992c6.246 0 11.264 5.222 11.264 11.674v33.28c-7.782-11.469-20.582-18.944-35.123-18.944zM371.098 468.582v-35.738c0-6.451 5.12-11.674 11.366-11.674h20.89c6.246 0 11.366 5.222 11.366 11.674v14.336h-6.963c-15.462 0-29.184 8.602-36.659 21.402zM408.166 508.211c3.072 0 5.53-2.56 5.53-5.734s-2.458-5.734-5.53-5.734c-3.072 0-5.53 2.56-5.53 5.734s2.458 5.734 5.53 5.734zM391.987 508.211c3.072 0 5.53-2.56 5.53-5.734s-2.458-5.734-5.53-5.734c-3.072 0-5.53 2.56-5.53 5.734-0.102 3.174 2.355 5.734 5.53 5.734zM599.962 508.211c3.072 0 5.53-2.56 5.53-5.734s-2.458-5.734-5.53-5.734c-3.072 0-5.53 2.56-5.53 5.734s2.458 5.734 5.53 5.734zM616.243 508.211c3.072 0 5.53-2.56 5.53-5.734s-2.56-5.734-5.53-5.734c-3.072 0-5.53 2.56-5.53 5.734-0.102 3.174 2.458 5.734 5.53 5.734zM668.774 659.251h-0.41c-0.819 7.373-6.861 13.21-14.131 13.21h-10.957v42.598c0 12.595-9.83 22.733-21.914 22.733h-234.496c-12.083 0-22.016-10.138-22.016-22.733v-42.598h-10.957c-7.373 0-13.414-5.837-14.131-13.21h-0.41c-4.608 0-8.397-3.891-8.397-8.704v-44.749c0-4.71 3.789-8.704 8.397-8.704h10.854c4.608 0 8.294 3.994 8.294 8.704v44.749c0 4.813-3.686 8.704-8.294 8.704h-1.946c0.512 2.56 2.662 4.403 5.325 4.403h11.264v-161.382c0-24.371 19.251-44.237 42.906-44.237h192.614c23.552 0 42.803 19.866 42.803 44.237v161.382h11.366c2.662 0 4.813-1.843 5.325-4.403h-1.946c-4.608 0-8.397-3.891-8.397-8.704v-44.749c0-4.71 3.789-8.704 8.397-8.704h10.854c4.608 0 8.397 3.994 8.397 8.704v44.749c-0.102 4.813-3.789 8.704-8.397 8.704zM436.634 721.51h134.861v-23.962h-134.861v23.962zM384.922 681.37h238.387v-135.27h-238.387v135.27zM424.858 491.725c-0.512-0.717-1.126-1.024-1.843-1.024h-31.027c-9.114 0-16.486 7.578-16.486 16.998v4.096c0 1.229 1.024 2.253 2.15 2.253h37.376c0.922 0 1.638-0.512 1.946-1.434l7.987-18.842c0.41-0.717 0.307-1.434-0.102-2.048zM632.73 507.699c0-9.421-7.475-16.998-16.486-16.998h-31.027c-0.819 0-1.331 0.41-1.843 1.024-0.41 0.717-0.512 1.331-0.102 2.15l7.885 18.842c0.41 0.922 1.126 1.434 2.048 1.434h37.274c1.331 0 2.15-1.024 2.15-2.253v-4.096h0.102z" />
<glyph unicode="&#xe911;" glyph-name="icon-18" d="M509.747 859.853c-133.734 0-259.686-53.248-353.587-148.89-92.877-95.539-143.667-221.082-142.643-353.28 0-115.507 40.858-228.864 114.893-318.771 4.403-5.427 9.933-7.782 16.589-7.782 26.522 0 79.565 0 145.92 0 111.616 0 255.181-1.126 374.579-1.126 97.28 0 178.995 0 215.552 1.126 6.656 0 12.186 3.277 16.486 8.909 73.011 91.034 111.718 202.138 111.718 318.771 0 275.558-224.358 501.043-499.507 501.043zM868.966 75.571c-95.13-2.15-396.8-1.126-579.072 0-58.573 0-106.086 0-134.861 0-62.976 79.974-98.406 180.019-98.406 282.112 0 121.037 46.387 235.52 131.482 322.15 86.221 86.63 200.090 135.475 321.638 135.475 250.88 0 455.27-205.517 455.27-457.626 0.102-103.322-33.178-201.011-96.051-282.112zM684.339 683.213l-171.213-355.43-169.165 355.43-140.39-428.749h-24.269v-47.821h142.541v45.568h-22.118l69.734 192.205 125.952-237.773h34.202l125.952 240.026 70.758-192.205h-25.293v-47.821h145.818v47.821h-25.395z" />
<glyph unicode="&#xe912;" glyph-name="icon-19" d="M1009.66-18.33l-300.753 295.629c71.991 74.547 111.522 171.725 111.522 274.842 0.094 106.496-41.89 206.848-118.374 282.214-76.698 75.366-178.586 116.838-287.031 116.838-108.339 0-210.33-41.472-287.437-116.838-76.595-75.469-118.784-175.718-118.784-282.419s42.189-207.053 118.784-282.522c76.8-75.166 178.586-116.531 286.822-116.531 96.354 0 188.932 33.382 262.148 94.106l300.954-296.346c4.198-4.096 10.031-6.451 16.175-6.451 5.943 0 11.473 2.15 15.159 5.837 4.297 3.891 6.75 9.523 6.959 15.667 0.102 6.144-2.15 11.981-6.144 15.974zM670.102 301.158c-68.096-67.072-158.822-104.038-255.181-104.038s-186.88 36.966-255.181 104.038c-68.198 66.97-105.779 156.16-105.779 250.88 0 94.818 37.581 183.906 105.882 250.978 67.891 67.174 158.515 104.145 255.181 104.145s187.191-36.864 255.078-104.145c68.301-67.068 105.783-156.258 105.783-250.978 0-94.618-37.482-183.808-105.783-250.88z" />
<glyph unicode="&#xe913;" glyph-name="icon-20" d="M977.203 485.888c0-35.84-9.83-68.608-29.594-98.509 3.686-13.312 5.427-27.136 5.427-41.677 0-31.027-7.68-59.904-22.938-86.938 1.126-8.499 1.741-17.101 1.741-25.907 0-40.653-12.083-76.493-36.25-107.52 0.41-55.91-16.691-100.147-51.302-132.608-34.611-32.358-80.282-48.64-137.114-48.64h-77.926c-38.605 0-76.8 4.608-114.483 13.619s-81.203 22.221-130.765 39.526c-46.694 16.077-74.445 24.166-83.354 24.166h-173.773c-21.402 0-39.526 7.578-54.682 22.63s-22.63 33.28-22.63 54.682v386.56c0 21.402 7.578 39.526 22.63 54.682s33.28 22.63 54.682 22.63h165.478c14.541 9.728 42.086 40.858 82.739 93.594 23.347 30.208 44.954 55.91 64.614 77.312 9.626 10.035 16.794 27.238 21.402 51.61s10.752 49.869 18.33 76.39c7.68 26.624 20.173 48.333 37.478 65.229 15.77 14.95 33.792 22.323 54.374 22.323 33.792 0 64.205-6.554 91.238-19.661 26.931-13.107 47.514-33.485 61.645-61.338s21.094-65.229 21.094-112.435c0-37.376-9.626-76.083-28.979-115.917h106.291c41.882 0 78.131-15.36 108.646-45.875 30.618-30.413 45.978-66.458 45.978-107.93zM192.717 110.182c7.68 7.68 11.469 16.691 11.469 27.136s-3.789 19.456-11.469 27.136c-7.68 7.68-16.691 11.469-27.136 11.469-10.547 0-19.558-3.789-27.136-11.469-7.68-7.68-11.469-16.691-11.469-27.136 0-10.547 3.789-19.558 11.469-27.136s16.691-11.469 27.136-11.469c10.342 0 19.456 3.891 27.136 11.469zM899.891 485.274c0 20.582-7.782 38.605-23.552 54.067-15.667 15.462-33.587 23.245-53.76 23.245h-212.582c0 23.347 9.728 55.501 28.979 96.358 19.354 40.858 28.979 73.114 28.979 96.87 0 39.424-6.451 68.608-19.354 87.654-12.902 18.944-38.605 28.365-77.312 28.365-10.547-10.445-18.125-27.546-22.938-51.302s-10.957-49.050-18.432-75.776c-7.475-26.726-19.456-48.845-35.942-66.15-8.909-9.318-24.371-27.648-46.49-54.989-1.536-2.048-6.246-8.090-13.824-18.125-7.68-10.035-14.029-18.33-19.046-24.678-5.018-6.451-11.981-15.053-20.89-25.702s-16.896-19.456-24.166-26.522c-7.27-7.066-14.95-14.234-23.245-21.402-8.192-7.27-16.282-12.698-24.166-16.282-7.885-3.686-15.053-5.427-21.402-5.427h-19.354v-386.458h19.354c5.222 0 11.571-0.614 19.046-1.843s14.131-2.56 19.866-3.891c5.837-1.434 13.517-3.686 22.938-6.656 9.421-3.072 16.486-5.325 21.094-6.963 4.608-1.536 11.776-4.096 21.402-7.475 9.728-3.379 15.462-5.53 17.51-6.349 84.89-29.389 153.805-44.134 206.541-44.134h73.114c77.312 0 115.917 33.587 115.917 100.864 0 10.445-1.024 21.709-3.072 33.792 12.083 6.451 21.709 16.998 28.672 31.744 7.066 14.643 10.547 29.491 10.547 44.442 0 14.848-3.686 28.774-10.854 41.677 21.299 20.173 32.051 44.134 32.051 71.885 0 10.138-2.048 21.299-6.042 33.485-4.096 12.288-9.011 21.811-15.053 28.672 12.902 0.41 23.654 9.83 32.256 28.365 8.909 18.227 13.21 34.509 13.21 48.64z" />
<glyph unicode="&#xe914;" glyph-name="icon-21" d="M696.627 815.718v-219.75h-216.166c-5.837 0-10.957-5.53-10.957-11.878v-220.262h-216.678c-5.837 0-10.957-5.53-10.957-11.878v-220.16h-216.166c-5.837 0.307-11.366-5.53-11.366-11.878 0-6.451 5.53-11.981 11.366-11.981h227.123c5.939 0 10.957 5.53 10.957 11.981v220.16h216.576c5.837 0 10.957 5.53 10.957 11.878v220.16h216.269c5.837 0 10.957 5.427 10.957 11.878v219.75h280.883c5.837 0 11.366 5.53 11.366 11.878 0 6.451-5.53 12.39-11.366 11.878h-291.84c-7.475 0.102-10.957-6.758-10.957-11.776v0zM845.005 485.888c0-7.27 7.066-11.059 12.493-11.059h86.323l-334.541-346.112c-3.994-4.301-4.301-12.39-0.41-17.101 3.994-4.608 11.366-4.608 15.667-0.307l336.179 347.238v-95.232c0-6.451 5.12-12.288 10.957-12.288s11.366 5.939 11.366 12.288v123.392c0 6.349-5.53 11.878-11.366 11.878h-114.074c-8.192 0-12.595-5.12-12.595-12.698v0z" />
<glyph unicode="&#xe915;" glyph-name="icon-22" d="M763.904 197.12h252.928v-252.928h-252.928v252.928zM386.048 197.12h251.904v-252.928h-251.904v252.928zM9.216 197.12h250.88v-252.928h-250.88v252.928zM763.904 574.976h252.928v-251.904h-252.928v251.904zM386.048 574.976h251.904v-251.904h-251.904v251.904zM9.216 574.976h250.88v-251.904h-250.88v251.904zM763.904 951.808h252.928v-250.88h-252.928v250.88zM386.048 951.808h251.904v-250.88h-251.904v250.88zM9.216 951.808h250.88v-250.88h-250.88v250.88z" />
<glyph unicode="&#xe916;" glyph-name="icon-23" d="M11.264 195.072h1004.544v-250.88h-1004.544v250.88zM11.264 571.904h1004.544v-250.88h-1004.544v250.88zM11.264 948.736h1004.544v-250.88h-1004.544v250.88z" />
<glyph unicode="&#xe917;" glyph-name="icon-24" d="M181.862 499.302h86.528v129.638l19.354 24.474h152.269l87.347-0.307 16.691-20.070v-17.818h146.534v138.138h-685.466l88.986-121.139 87.757-132.915zM309.965 441.242h-128.102v-309.146h117.35v92.262h72.909v205.824h-52.736l-9.421 11.059zM528.486 445.747h-97.587v-122.778h326.656l0.614 1.536c7.27 19.558 22.323 35.635 41.165 43.93l1.434 0.614v196.915h-256.819v-96.154h0.307v-5.837l-15.77-18.227zM748.237 753.357v-137.933h110.797v-213.094l0.102-2.458v-31.027l1.434-0.614c17.715-7.885 31.744-22.323 39.424-40.448l0.614-1.434h0.205c3.789-9.318 4.915-15.36 4.915-15.36h106.496v442.368h-263.987zM898.97 262.554c-15.872-28.877-38.81-43.725-68.301-44.237h-0.922c-13.824 0-26.726 5.427-33.178 8.602l-0.102 0.102c-15.36 7.578-28.058 20.275-35.533 35.84l-0.614 1.331h-330.035v-78.541h38.298v-54.374l492.134 0.922 0.205 131.686h-61.44l-0.512-1.331z" />
<glyph unicode="&#xe918;" glyph-name="icon-25" d="M514.048 415.642c-143.872 0-260.915 117.146-260.915 260.915 0 143.872 117.043 260.915 260.915 260.915s260.915-117.043 260.915-260.813c0-143.974-117.146-261.018-260.915-261.018zM1015.706-40.141h-1003.418v20.070c0 38.195 0 117.555 36.352 197.12 45.363 99.021 131.072 166.093 255.181 199.578l8.192 2.15 7.27-4.301c58.675-35.021 126.054-53.453 194.765-53.453 68.608 0 135.987 18.432 194.765 53.453l7.27 4.301 8.192-2.15c124.109-33.485 209.818-100.659 255.078-199.578 36.352-79.565 36.352-158.925 36.352-197.12v-20.070z" />
<glyph unicode="&#xe919;" glyph-name="icon-26" d="M512.41 949.926c-277.197 0-502.682-225.485-502.682-502.682 0-277.094 225.485-502.682 502.682-502.682s502.682 225.587 502.682 502.682c0 277.197-225.485 502.682-502.682 502.682v0zM512.41 880.704c239.718 0 433.357-193.638 433.357-433.459 0-239.718-193.638-433.254-433.357-433.254s-433.357 193.638-433.357 433.254c0 239.718 193.638 433.459 433.357 433.459v0zM512.41 776.665c-19.149 0-34.714-15.565-34.714-34.714v-294.707c0-9.626 4.096-18.022 10.342-24.371l183.603-184.218c13.517-13.517 35.738-13.517 49.357 0 13.517 13.517 13.517 35.738 0 49.254l-173.875 173.363v280.576c-0.102 19.251-15.565 34.816-34.714 34.816z" />
<glyph unicode="&#xe91a;" glyph-name="icon-27" d="M285.082-52.429h-134.963v999.731h450.253c184.525 0 296.038-119.808 296.038-280.883 0-139.059-79.872-297.472-296.038-297.472h-315.392v-421.376zM285.082 484.659h268.493c121.139 0 203.776 45.466 203.776 180.326 0 125.338-86.733 166.605-198.246 166.605h-274.022v-346.931z" />
<glyph unicode="&#xe91b;" glyph-name="icon-28" d="M1015.398 701.952l-503.194-575.283-503.296 575.283z" />
<glyph unicode="&#xe91c;" glyph-name="icon-29" d="M965.427 130.56v-125.645h-904.294v125.645h-50.278v-150.733c0-13.926 11.264-25.088 25.088-25.088h954.573c13.926 0 25.088 11.264 25.088 25.088v150.733h-50.176zM796.979 474.931l-258.662-258.662v718.131h-50.176v-718.029l-258.56 258.662-35.533-35.533 301.466-301.466c4.915-4.915 11.366-7.373 17.715-7.373s12.902 2.458 17.715 7.373l301.466 301.466-35.43 35.43z" />
</font>
</defs>
</svg>
