<?xml version="1.0" standalone="no"?>
<!DOCTYPE svg PUBLIC "-//W3C//DTD SVG 20010904//EN"
 "http://www.w3.org/TR/2001/REC-SVG-20010904/DTD/svg10.dtd">
<svg version="1.0" xmlns="http://www.w3.org/2000/svg"
 width="260.000000pt" height="260.000000pt" viewBox="0 0 260.000000 260.000000"
 preserveAspectRatio="xMidYMid meet">
<metadata>
Created by potrace 1.11, written by Peter Selinger 2001-2013
</metadata>
<g transform="translate(0.000000,260.000000) scale(0.100000,-0.100000)"
fill="#000000" stroke="none">
<path d="M1093 2564 c-155 -40 -275 -107 -384 -215 -114 -113 -185 -241 -226
-409 -9 -36 -12 -249 -3 -285 5 -22 11 -51 14 -65 20 -108 72 -264 142 -430
83 -193 229 -466 418 -783 11 -17 69 -107 129 -200 109 -167 109 -167 127
-145 49 64 274 419 353 558 105 184 237 443 282 551 62 148 77 188 100 259 59
188 74 271 70 405 -5 213 -80 390 -232 542 -98 99 -260 192 -378 217 -16 3
-41 9 -55 13 -14 3 -79 7 -145 8 -99 2 -136 -2 -212 -21z"/>
</g>
</svg>
