<?xml version="1.0" encoding="utf-8"?>
<!-- Generator: Adobe Illustrator 17.0.0, SVG Export Plug-In . SVG Version: 6.00 Build 0)  -->
<!DOCTYPE svg PUBLIC "-//W3C//DTD SVG 1.1//EN" "http://www.w3.org/Graphics/SVG/1.1/DTD/svg11.dtd">
<svg version="1.1" id="Layer_1" xmlns="http://www.w3.org/2000/svg" xmlns:xlink="http://www.w3.org/1999/xlink" x="0px" y="0px"
	 width="64px" height="64px" viewBox="0 0 64 64" enable-background="new 0 0 64 64" xml:space="preserve">
<g>
	<g>
		<path fill="#FFFFFF" d="M25.811,0.709c-6.419,0-12.85,2.416-17.763,7.219c-9.775,9.637-9.775,25.262,0,34.9
			c9.45,9.266,24.562,9.587,34.412,0.963l19.6,19.294c0.281,0.275,0.756,0.275,1.012,0.025c0.269-0.244,0.269-0.737,0.019-0.988
			L43.473,42.828c0.025-0.025,0.025-0.025,0.025-0.025c9.8-9.637,9.825-25.237,0.05-34.875C38.661,3.125,32.236,0.709,25.811,0.709
			L25.811,0.709z M25.811,2.091c6.044,0,12.119,2.266,16.725,6.825c9.25,9.094,9.25,23.809,0,32.9
			c-9.244,9.094-24.206,9.094-33.45,0c-9.243-9.091-9.243-23.806,0-32.9C13.692,4.356,19.767,2.091,25.811,2.091L25.811,2.091z"/>
		<path fill="#FFFFFF" d="M62.586,64c-0.388,0-0.763-0.15-1.031-0.41L42.43,44.756c-4.65,3.859-10.538,5.978-16.663,5.978
			c-6.881,0-13.35-2.631-18.225-7.406c-4.862-4.794-7.544-11.169-7.544-17.95c0-6.781,2.681-13.156,7.544-17.95
			C12.442,2.638,18.93,0,25.811,0c6.894,0,13.369,2.64,18.244,7.428c4.862,4.794,7.531,11.166,7.525,17.938
			c-0.006,6.553-2.519,12.728-7.087,17.466l19.112,18.791c0.256,0.256,0.4,0.625,0.394,1.019c-0.012,0.388-0.169,0.75-0.444,0.994
			C63.317,63.866,62.967,64,62.586,64z M54.411,54.553l8.175,8.031h0.012L54.411,54.553z M25.811,2.8
			c-6.144,0-11.9,2.347-16.219,6.615c-4.337,4.269-6.725,9.931-6.725,15.953c0,6.019,2.388,11.684,6.725,15.947
			c4.338,4.266,10.094,6.612,16.219,6.612s11.887-2.347,16.219-6.612c4.337-4.262,6.725-9.928,6.725-15.947
			c0-6.022-2.381-11.684-6.725-15.953C37.711,5.147,31.955,2.8,25.811,2.8z M1.999,30.534c0.981,4.435,3.225,8.506,6.556,11.791
			c1.844,1.809,3.931,3.291,6.188,4.416c-2.244-1.131-4.325-2.616-6.169-4.422C5.236,39.034,2.98,34.965,1.999,30.534z M8.755,8.24
			c-0.069,0.063-0.138,0.132-0.2,0.194c-1.331,1.313-2.494,2.756-3.469,4.294c0.981-1.544,2.144-2.994,3.488-4.313
			C8.636,8.356,8.692,8.3,8.755,8.24z"/>
	</g>
</g>
</svg>
