<?xml version="1.0" encoding="utf-8"?>
<!-- Generator: Adobe Illustrator 18.1.1, SVG Export Plug-In . SVG Version: 6.00 Build 0)  -->
<svg version="1.1" baseProfile="tiny" id="Layer_1" xmlns="http://www.w3.org/2000/svg" xmlns:xlink="http://www.w3.org/1999/xlink"
	 x="0px" y="0px" viewBox="0 0 36 36" xml:space="preserve">
<g transform="translate(0,-952.36218)">
	<path fill="#FFFFFF" d="M7.42,952.37c-0.25,0.02-0.47,0.07-0.71,0.15l6.39,6.39l-1.64,4.91l-4.91,1.64l-6.39-6.39
		C0.07,959.56,0,959.9,0,960.55c0,0-0.01,0.14,0,0.31c-0.01,0.16,0,0.35,0,0.51c0,4.91,4.03,9,9,9c0.75,0,1.45-0.14,2.15-0.31
		l1.54,1.48c-0.36,0.84-0.8,1.65-1.23,2.1c-0.96,0.82-3.46,2.13-4.91,1.63L0.82,981L0,981.82l6.55,6.54l6.54-6.54
		c-0.06-0.18-0.08-0.4-0.1-0.61c-0.03-0.37,0.01-0.76,0.1-1.18c0.1-0.44,0.29-0.87,0.46-1.28c0.22-0.5,0.44-0.97,0.72-1.33
		c0.03-0.04,0.07-0.06,0.1-0.1c0.12-0.15,0.24-0.31,0.36-0.41c0.24-0.25,0.58-0.52,0.97-0.77c0.32-0.2,0.65-0.4,1.02-0.56l1.33,1.33
		l3.22,3.27l4.91,4.91c0.83,0.82,1.99,1.33,3.27,1.33c2.52,0,4.55-1.98,4.55-4.6c0-1.31-0.48-2.45-1.28-3.27l-0.05-0.15l-4.86-4.75
		l-5.68-5.78l10.59-10.58l0.82,0.82l2.46-4.09l-1.63-1.64l-4.09,2.46l0.82,0.82l-10.58,10.58l-2.81-2.71
		c0.17-0.82,0.31-1.49,0.31-2.15c0-5.07-4.03-9-9-9H8.59H8.18C7.93,952.37,7.66,952.35,7.42,952.37L7.42,952.37z M29.46,979.36
		c1.35,0,2.45,0.98,2.45,2.45c0,1.31-1.1,2.45-2.45,2.45S27,983.13,27,981.82C27,980.35,28.1,979.36,29.46,979.36z"/>
</g>
</svg>
