<?xml version="1.0" encoding="utf-8"?>
<!-- Generator: Adobe Illustrator 18.1.1, SVG Export Plug-In . SVG Version: 6.00 Build 0)  -->
<svg version="1.1" baseProfile="tiny" id="Layer_1" xmlns="http://www.w3.org/2000/svg" xmlns:xlink="http://www.w3.org/1999/xlink"
	 x="0px" y="0px" viewBox="0 0 41.33 43.84" xml:space="preserve">
<g>
	
		<rect x="8.33" y="21.81" transform="matrix(0.8013 0.5983 -0.5983 0.8013 22.0217 -0.0246)" fill="#FFFFFF" width="5.44" height="22.65"/>
	<g>
		<path fill="#FFFFFF" d="M32.99,13.09c0,0,0,0.01,0,0.02C32.99,13.11,32.99,13.1,32.99,13.09z"/>
		<path fill="#FFFFFF" d="M26.49,17.97c0.33-0.44-0.36-1.53-1.57-2.54c0.1,0.52-0.12,1.33-0.6,2.17
			C25.34,18.16,26.22,18.33,26.49,17.97z"/>
		<path fill="#FFFFFF" d="M34.13,2.09c-4.61-3.45-11.21-2.55-14.66,2.07l-6.94,9.37c-1.51,2.03-1.19,5.02,0.88,6.56l1.4,1.04
			l6.19,4.62l1.75,1.3c2.03,1.51,5.02,0.98,6.56-1.08l6.84-9.16l0.05-0.07C39.63,12.13,38.75,5.54,34.13,2.09z M23.97,6.31
			c0.78-1.05,1.92-1.78,3.14-2.01c1.57-0.35,3.29-0.1,4.69,0.94c1.4,1.04,2.12,2.56,2.17,4.18c0.06,1.24-0.29,2.51-1.09,3.59
			l-0.05,0.07c0,0-0.05,0.07-0.1,0.14l-0.26,0.35l-0.21,0.28c-0.52,0.7-1.37,0.94-2.07,0.42l-6.5-4.85c-0.7-0.52-0.84-1.5-0.32-2.2
			L23.97,6.31z M20.25,20.76c-2.51-1.88-3.28-4.99-2.09-6.59c1.2-1.6,4.2-1.38,6.71,0.5c2.51,1.87,3.58,4.69,2.39,6.29
			C26.07,22.56,22.76,22.63,20.25,20.76z"/>
		<path fill="#FFFFFF" d="M32.99,13.09C32.99,13.08,32.99,13.08,32.99,13.09L32.99,13.09z"/>
		<path fill="#FFFFFF" d="M23.21,16.9c0.21,0.16,0.43,0.31,0.64,0.44c0.46-0.79,0.61-1.51,0.32-1.72c-0.29-0.22-0.93,0.13-1.56,0.8
			C22.79,16.58,22.99,16.74,23.21,16.9z"/>
		<path fill="#FFFFFF" d="M22.68,17.61c-0.22-0.17-0.43-0.34-0.63-0.51c-0.66,0.94-0.92,1.88-0.58,2.13
			c0.34,0.25,1.16-0.26,1.88-1.16C23.12,17.93,22.9,17.78,22.68,17.61z"/>
		<path fill="#FFFFFF" d="M21.57,16.79c0.02-0.02,0.04-0.05,0.06-0.07c-1.11-1.09-1.7-2.2-1.43-2.82c-0.57,0.14-1.05,0.43-1.38,0.87
			c-1.01,1.35-0.25,3.63,1.67,5.21C20.22,19.34,20.65,18.03,21.57,16.79z"/>
		<path fill="#FFFFFF" d="M23.83,18.36c-0.02,0.03-0.04,0.05-0.05,0.08c-0.93,1.24-2.07,2.02-2.76,1.94
			c2.08,1.42,4.51,1.51,5.52,0.15c0.34-0.46,0.48-1.02,0.44-1.63C26.48,19.37,25.22,19.13,23.83,18.36z"/>
		<path fill="#FFFFFF" d="M22.21,16.04c0.68-0.7,1.39-1.14,1.92-1.19c-0.46-0.31-0.9-0.55-1.31-0.71c-0.32-0.12-0.64-0.2-0.96-0.26
			c-0.29-0.02-0.5,0.04-0.61,0.19C20.98,14.42,21.39,15.21,22.21,16.04z"/>
	</g>
</g>
</svg>
