<?xml version="1.0" encoding="utf-8"?>
<!-- Generator: Adobe Illustrator 18.1.1, SVG Export Plug-In . SVG Version: 6.00 Build 0)  -->
<svg version="1.1" baseProfile="tiny" id="Layer_1" xmlns="http://www.w3.org/2000/svg" xmlns:xlink="http://www.w3.org/1999/xlink"
	 x="0px" y="0px" viewBox="0 0 42.64 43.84" xml:space="preserve">
<path fill="#FFFFFF" d="M36.04,7.06c-4.48,0-5.82,1.76-5.82,6.19l-11.65,11.5c-4.47,0-6.26,1.34-6.26,5.76l0.44,0.44l3.13-3.09
	l2.69,0.89l0.9,2.64l-3.13,3.11c0.18,0.08,0.25,0.39,0.44,0.44c4.48,0,5.82-1.76,5.82-6.19l11.64-11.51c4.48,0,6.28-1.33,6.28-5.75
	l-0.44-0.44l-3.13,3.09l-2.7-0.89l-0.89-2.66l3.13-3.09L36.04,7.06z M16.24,12.08c-5.28,0.33-9.76,1.3-14.69,4.33
	c-0.92,0.7-0.81,2.75-0.81,4.44v1.18c-0.86,0.66-0.71,2.48-0.26,2.83c0.06,0.15,0.19,1.27,0.19,1.27h2.76c0-0.01,0-0.01,0-0.01
	l0.01-0.09c0.24-1.12,0.93-2.14,2.01-2.76l0.01-0.01c2.02-1.15,4.6-0.47,5.77,1.52c0.35,0.6,0.54,1.23,0.58,1.88h0.55
	c0.81-1.89,2.64-2.54,5.76-2.54l6.85-6.77h-7.91v-4.15c0.15,0,0.3,0,0.44,0c4.53,0.01,7.09,0.82,8.83,2.48v0.32l1.49-1.48
	c-0.39-0.21-0.78-0.42-1.17-0.61c-2.25-1.09-3.33-1.41-5.71-1.69C20.12,12.13,18.16,12.08,16.24,12.08z M16.33,13.21v4.15H3.96
	C4.26,14.63,12.53,13.27,16.33,13.21z M34.49,18.07l-8.7,8.59h2.89c0.07-1.36,0.82-2.65,2.1-3.38l0.01-0.01
	c2.02-1.15,4.6-0.47,5.77,1.52c0.35,0.6,0.54,1.12,0.57,1.77H42c0.08-0.1,0.1-0.47,0.06-1.07L42,25.28c0,0,0.35-0.08,0.43-0.22
	c0.4-0.66,0.13-2.23,0-2.33c-0.13-0.11-0.4-0.2-0.46-0.2c-0.06,0-0.15-0.83-0.21-1.04C41.15,19.39,37.39,18.82,34.49,18.07z
	 M7.5,23.66c-0.55,0-1.1,0.14-1.61,0.42l-0.01,0.02c-1.54,0.89-2.05,2.85-1.15,4.38c0.9,1.53,2.89,2.05,4.43,1.15
	c1.55-0.89,2.05-2.85,1.15-4.38C9.7,24.23,8.61,23.65,7.5,23.66z M32.94,23.66c-0.55,0-1.1,0.14-1.61,0.42l-0.01,0.02
	c-1.54,0.89-2.05,2.85-1.15,4.38c0.9,1.53,2.89,2.05,4.43,1.15c1.54-0.89,2.05-2.85,1.15-4.38C35.14,24.23,34.05,23.65,32.94,23.66z
	 M7.55,24.72c0.73,0.01,1.42,0.39,1.82,1.05c0.6,1.02,0.26,2.32-0.77,2.92c-1.03,0.59-2.35,0.26-2.95-0.76
	c-0.6-1.02-0.26-2.32,0.77-2.92h0.01C6.79,24.81,7.17,24.71,7.55,24.72z M32.99,24.72c0.73,0.01,1.42,0.39,1.82,1.05
	c0.6,1.02,0.26,2.32-0.77,2.92c-1.03,0.59-2.35,0.26-2.95-0.76c-0.6-1.02-0.26-2.32,0.77-2.92h0.02
	C32.23,24.81,32.61,24.71,32.99,24.72z M7.3,25.25c-0.21,0.03-0.42,0.09-0.62,0.2l-0.01,0.02c-0.79,0.45-1.05,1.43-0.59,2.2
	c0.46,0.77,1.48,1.03,2.27,0.58c0.79-0.45,1.05-1.45,0.59-2.22C8.6,25.46,7.95,25.17,7.3,25.25z M32.74,25.25
	c-0.21,0.03-0.42,0.09-0.62,0.2l-0.02,0.02c-0.79,0.45-1.05,1.43-0.59,2.2c0.46,0.77,1.48,1.03,2.27,0.58
	c0.79-0.45,1.05-1.45,0.59-2.22C34.04,25.46,33.38,25.17,32.74,25.25z"/>
</svg>
