<?xml version="1.0" encoding="utf-8"?>
<!-- Generator: Adobe Illustrator 18.1.1, SVG Export Plug-In . SVG Version: 6.00 Build 0)  -->
<svg version="1.1" baseProfile="tiny" id="Layer_1" xmlns="http://www.w3.org/2000/svg" xmlns:xlink="http://www.w3.org/1999/xlink"
	 x="0px" y="0px" viewBox="0 0 41.33 43.84" xml:space="preserve">
<g transform="matrix( 1, 0, 0, 1, 0,0) ">
	<g>
		<g id="a_2_">
			<path fill="#FFFFFF" d="M40.82,17.8c0-1.38-0.97-2.54-2.92-3.49c-1.95-0.93-4.39-1.4-7.32-1.4c-3.54,0-6.38,0.63-8.51,1.88V7.65
				c0-1.38-0.99-2.54-2.97-3.49c-2.02-0.93-4.5-1.4-7.45-1.4c-2.93,0-5.41,0.47-7.45,1.4C2.19,5.11,1.18,6.27,1.18,7.65V28.9
				c0.07,1.35,1.12,2.47,3.15,3.34c1.98,0.9,4.42,1.36,7.32,1.36v0.97c0.12,1.32,1.19,2.44,3.2,3.34c1.98,0.88,4.43,1.32,7.34,1.32
				c2.93,0,5.41-0.45,7.45-1.36c2.02-0.95,3.04-2.09,3.07-3.45h0.05v-1.32c2.41-0.2,4.34-0.74,5.79-1.62
				c1.47-0.88,2.23-1.91,2.26-3.08V17.8 M38.89,24.83c0,0.63-0.55,1.25-1.65,1.84c-1.17,0.58-2.66,0.97-4.47,1.18v-0.49
				c0-0.28-0.11-0.69-0.33-1.22c2.63-0.24,4.74-0.82,6.35-1.72L38.89,24.83 M38.89,28.33c0,0.65-0.55,1.26-1.65,1.84
				c-1.17,0.58-2.66,0.98-4.47,1.2v-1.76c2.44-0.2,4.45-0.76,6.02-1.66L38.89,28.33 M38.79,20.86l0.1,0.45c0,0.8-0.75,1.5-2.26,2.11
				c-1.61,0.67-3.57,1.01-5.9,1.01c-1.92-1.2-4.52-1.84-7.83-1.93c-0.41-0.35-0.63-0.69-0.66-1.01v-0.3l0.05-0.26
				c2.1,1.19,4.86,1.78,8.29,1.78C33.95,22.7,36.69,22.09,38.79,20.86 M19.98,7.65c0,0.78-0.77,1.49-2.31,2.11
				c-1.66,0.68-3.67,1.01-6.02,1.01c-2.2,0-4.13-0.3-5.79-0.89C4.35,9.29,3.51,8.64,3.34,7.91V7.65c0-0.77,0.77-1.48,2.31-2.13
				c1.64-0.66,3.64-0.99,6-0.99c2.35,0,4.36,0.33,6.02,0.99C19.21,6.17,19.98,6.88,19.98,7.65 M19.93,14.23l0.05,0.45
				c0,0.78-0.77,1.49-2.31,2.11c-1.66,0.68-3.67,1.01-6.02,1.01c-2.27,0-4.22-0.31-5.84-0.93c-1.54-0.58-2.36-1.26-2.47-2.03v-0.3
				l0.1-0.3c2.02,1.2,4.75,1.8,8.21,1.8C15.14,16.04,17.9,15.43,19.93,14.23 M19.98,11.15c0,0.8-0.77,1.5-2.31,2.11
				c-1.66,0.67-3.67,1.01-6.02,1.01c-2.24,0-4.17-0.3-5.79-0.91c-1.54-0.59-2.38-1.26-2.52-1.99v-0.41l0.1-0.26
				c2.02,1.2,4.75,1.8,8.21,1.8c3.49,0,6.25-0.6,8.29-1.8L19.98,11.15 M19.93,17.74l0.05,0.45c0,0.8-0.77,1.5-2.31,2.11
				c-1.66,0.67-3.67,1.01-6.02,1.01c-2.27,0-4.24-0.32-5.9-0.97c-1.54-0.58-2.35-1.25-2.41-2.01v-0.26l0.1-0.32
				c1.98,1.2,4.72,1.8,8.21,1.8C15.14,19.54,17.9,18.94,19.93,17.74 M22.25,18.06V17.8h-0.05c0-0.77,0.79-1.48,2.36-2.13
				c1.66-0.66,3.67-0.99,6.02-0.99c2.35,0,4.35,0.33,6,0.99c1.54,0.65,2.31,1.36,2.31,2.13c0,0.78-0.77,1.5-2.31,2.15
				c-1.64,0.67-3.64,1.01-6,1.01c-2.25,0-4.18-0.31-5.8-0.93C23.28,19.47,22.43,18.82,22.25,18.06 M13.2,24.77l-1.55,0.06
				c-2.27,0-4.24-0.32-5.9-0.97c-1.54-0.62-2.35-1.31-2.41-2.07v-0.18l0.1-0.34c2.02,1.2,4.75,1.8,8.21,1.8
				c3.49,0,6.25-0.6,8.29-1.8l0.05,0.45c0,0.31-0.13,0.62-0.38,0.91C16.87,22.95,14.74,23.66,13.2,24.77 M13.91,27.59v-0.22h-0.05
				c0-0.78,0.77-1.5,2.31-2.15c1.66-0.68,3.67-1.01,6.02-1.01s4.35,0.34,6,1.01c1.59,0.65,2.39,1.36,2.39,2.15
				c0,0.77-0.8,1.47-2.39,2.11c-1.64,0.67-3.64,1.01-6,1.01c-2.2,0-4.13-0.3-5.79-0.91C14.89,28.98,14.06,28.31,13.91,27.59
				 M11.65,27.36l0.05,0.26v0.71h-0.05c-2.3,0-4.29-0.32-5.95-0.97c-1.54-0.61-2.33-1.31-2.36-2.11v-0.04l0.1-0.45
				c2.02,1.2,4.75,1.8,8.21,1.8h0.18C11.71,26.84,11.65,27.11,11.65,27.36 M11.65,30.1h0.05l-0.05,1.76c-2.36,0-4.35-0.34-6-1.01
				c-1.54-0.62-2.31-1.32-2.31-2.11l0.1-0.45C5.42,29.5,8.16,30.1,11.65,30.1 M13.86,30.75l0.1-0.3c2.1,1.2,4.85,1.8,8.23,1.8
				c3.42,0,6.18-0.6,8.26-1.8l0.13,0.45c0,0.76-0.8,1.46-2.39,2.11c-1.64,0.67-3.64,1.01-6,1.01c-2.29,0-4.25-0.32-5.9-0.97
				c-1.56-0.61-2.37-1.3-2.44-2.07V30.75 M13.86,34.35l0.1-0.38c2.1,1.2,4.85,1.8,8.23,1.8c3.42,0,6.18-0.6,8.26-1.8l0.13,0.43
				c0,0.77-0.8,1.47-2.39,2.11c-1.64,0.68-3.64,1.01-6,1.01s-4.36-0.34-6.02-1.01c-1.54-0.63-2.31-1.34-2.31-2.11V34.35z"/>
		</g>
	</g>
</g>
</svg>
