<?xml version="1.0" encoding="utf-8"?>
<!-- Generator: Adobe Illustrator 18.1.1, SVG Export Plug-In . SVG Version: 6.00 Build 0)  -->
<svg version="1.1" baseProfile="tiny" id="Layer_1" xmlns="http://www.w3.org/2000/svg" xmlns:xlink="http://www.w3.org/1999/xlink"
	 x="0px" y="0px" viewBox="0 0 62 62" xml:space="preserve">
<path fill="#C12027" d="M17.5,54c-4.8,0-8.8-3.9-8.8-8.8c0-1.9,0.7-3.8,1.9-5.4l0.9-1.1l0.6,1.3c2.1,4.8,5.8,8.6,10.6,10.6l1.3,0.6
	l-1.1,0.9C21.3,53.3,19.5,54,17.5,54z M11.2,42c-0.5,1-0.8,2.1-0.8,3.2c0,3.9,3.2,7.1,7.1,7.1c1.1,0,2.2-0.3,3.2-0.8
	C16.6,49.4,13.3,46.1,11.2,42z M44.5,54c-1.9,0-3.8-0.7-5.4-1.9L38,51.2l1.3-0.6c4.8-2.1,8.6-5.8,10.6-10.6l0.6-1.3l0.9,1.1
	c1.2,1.6,1.9,3.4,1.9,5.4C53.2,50,49.3,54,44.5,54z M41.3,51.5c1,0.5,2.1,0.8,3.2,0.8c3.9,0,7.1-3.2,7.1-7.1c0-1.1-0.3-2.2-0.8-3.2
	C48.7,46.1,45.4,49.4,41.3,51.5z M31.3,50.4C20.6,50.4,12,41.7,12,31.1c0-10.7,8.7-19.3,19.3-19.3c10.7,0,19.3,8.7,19.3,19.3
	C50.6,41.7,41.9,50.4,31.3,50.4z M31.3,13.4c-9.7,0-17.7,7.9-17.7,17.7c0,9.7,7.9,17.6,17.7,17.6c9.7,0,17.7-7.9,17.7-17.6
	C48.9,21.3,41,13.4,31.3,13.4z M31.3,39.8c-4.8,0-8.8-3.9-8.8-8.8s3.9-8.8,8.8-8.8c4.8,0,8.8,3.9,8.8,8.8S36.1,39.8,31.3,39.8z
	 M31.3,24c-3.9,0-7.1,3.2-7.1,7.1c0,3.9,3.2,7.1,7.1,7.1c3.9,0,7.1-3.2,7.1-7.1C38.4,27.2,35.2,24,31.3,24z M31.3,36
	c-2.7,0-4.9-2.2-4.9-4.9c0-2.7,2.2-4.9,4.9-4.9c2.7,0,4.9,2.2,4.9,4.9C36.2,33.8,34,36,31.3,36z M31.3,27.9c-1.8,0-3.2,1.4-3.2,3.2
	c0,1.8,1.4,3.2,3.2,3.2c1.8,0,3.2-1.4,3.2-3.2C34.5,29.3,33.1,27.9,31.3,27.9z M50.5,23.3L49.9,22c-2.1-4.8-5.8-8.6-10.6-10.6
	L38,10.8l1.1-0.9C40.7,8.7,42.5,8,44.5,8c4.8,0,8.8,3.9,8.8,8.8c0,1.9-0.7,3.8-1.9,5.4L50.5,23.3z M41.3,10.5
	c4.1,2.1,7.4,5.4,9.5,9.5c0.5-1,0.8-2.1,0.8-3.2c0-3.9-3.2-7.1-7.1-7.1C43.4,9.7,42.3,10,41.3,10.5z M11.5,23.3l-0.9-1.1
	c-1.2-1.6-1.9-3.4-1.9-5.4C8.8,12,12.7,8,17.5,8c1.9,0,3.8,0.7,5.4,1.9l1.1,0.9l-1.3,0.6c-4.8,2.1-8.6,5.8-10.6,10.6L11.5,23.3z
	 M17.5,9.7c-3.9,0-7.1,3.2-7.1,7.1c0,1.1,0.3,2.2,0.8,3.2c2.1-4.1,5.4-7.4,9.5-9.5C19.7,10,18.6,9.7,17.5,9.7z"/>
</svg>
