<?xml version="1.0" encoding="utf-8"?>
<!-- Generator: Adobe Illustrator 18.1.1, SVG Export Plug-In . SVG Version: 6.00 Build 0)  -->
<svg version="1.1" baseProfile="tiny" id="Layer_1" xmlns="http://www.w3.org/2000/svg" xmlns:xlink="http://www.w3.org/1999/xlink"
	 x="0px" y="0px" viewBox="0 0 61 61" xml:space="preserve">
<g>
	<g>
		<path fill="#C12027" d="M1.6,53.7h57.9V40.5l-8.8-8.8l-6,6L26.5,19.6l-8,8L1.6,8.6V53.7z M43.8,52.1H27.3V22.7l16.5,16.5V52.1z
			 M25.7,52.1h-6.4v-23l6.4-6.4V52.1z M57.8,52.1H45.4V39.2l5.2-5.2l7.2,7.2V52.1z M3.2,12.8l14.5,16.3v23H3.2V12.8z"/>
		<polygon fill="#C12027" points="26.3,7.3 43.5,24.6 43.5,21.8 45.1,23.5 45.1,27.3 41.3,27.3 39.6,25.7 42.4,25.7 25.1,8.4 		"/>
	</g>
</g>
</svg>
