<?xml version="1.0" encoding="utf-8"?>
<!-- Generator: Adobe Illustrator 18.1.1, SVG Export Plug-In . SVG Version: 6.00 Build 0)  -->
<svg version="1.1" baseProfile="tiny" id="Layer_1" xmlns="http://www.w3.org/2000/svg" xmlns:xlink="http://www.w3.org/1999/xlink"
	 x="0px" y="0px" viewBox="0 0 62 62" xml:space="preserve">
<g>
	<path fill="#C12027" d="M31,7.3C17.9,7.3,7.3,17.9,7.3,31c0,13.1,10.6,23.7,23.7,23.7S54.7,44.1,54.7,31C54.7,17.9,44.1,7.3,31,7.3
		z M41.5,11.5L41.5,11.5c0,0.2,1.2,5.1-3.4,9.8c-0.9-0.6-2.1-1-3.3-1c-0.5,0-1.1,0.1-1.6,0.2c-1.5-2.1-6.8-7.7-17.5-5.6
		c4-3.8,9.3-6.1,15.2-6.1C34.8,8.8,38.4,9.8,41.5,11.5z M34.9,30.6c-2.5,0-4.5-2-4.5-4.5s2-4.5,4.5-4.5c2.5,0,4.5,2,4.5,4.5
		C39.3,28.6,37.3,30.6,34.9,30.6z M13.9,16.8c11.1-3.1,16.4,2.1,18,4.3c-1.8,1-3,2.9-3,5.1c0,0.1,0,0.3,0,0.4
		C26.3,27,16.6,29.3,10.7,40c-1.2-2.7-1.9-5.8-1.9-9C8.8,25.6,10.7,20.7,13.9,16.8z M11.5,41.6C17,30.8,26.8,28.5,29.3,28
		c0.6,1.9,2.2,3.4,4.2,3.9c-1.1,2.5-3.3,9.4-1.4,21.2c-0.4,0-0.7,0.1-1.1,0.1C22.6,53.2,15.2,48.5,11.5,41.6z M33.6,53.1
		c-2.1-12.3,0.6-19.2,1.5-20.9c2.5-0.1,4.6-1.7,5.4-3.9c2.5,1.3,8.4,5.3,9.5,14.4C46.4,48.2,40.5,52.2,33.6,53.1z M51.1,40.5
		c-1.8-8.7-7.9-12.5-10.3-13.7c0-0.2,0.1-0.3,0.1-0.5c0-1.5-0.6-2.9-1.6-4c3.7-3.8,4-7.8,3.9-9.8c6.1,4,10.1,10.8,10.1,18.6
		C53.2,34.4,52.4,37.6,51.1,40.5z"/>
</g>
</svg>
