<?xml version="1.0" encoding="utf-8"?>
<!-- Generator: Adobe Illustrator 18.1.1, SVG Export Plug-In . SVG Version: 6.00 Build 0)  -->
<svg version="1.1" baseProfile="tiny" id="Layer_1" xmlns="http://www.w3.org/2000/svg" xmlns:xlink="http://www.w3.org/1999/xlink"
	 x="0px" y="0px" viewBox="0 0 115 100" xml:space="preserve">
<g>
	<path fill="#AF1F26" d="M57.5,5c-24.9,0-45,20.1-45,45s20.1,45,45,45s45-20.1,45-45S82.4,5,57.5,5z M88.1,80.6
		c-4,4-8.6,7.1-13.7,9.3c-5.3,2.3-11,3.4-16.8,3.4S46,92.1,40.7,89.8c-5.1-2.2-9.8-5.3-13.7-9.3c-4-4-7.1-8.6-9.3-13.7
		c-2.3-5.3-3.4-11-3.4-16.8s1.1-11.5,3.4-16.8c2.2-5.1,5.3-9.8,9.3-13.7c4-4,8.6-7.1,13.7-9.3c5.3-2.3,11-3.4,16.8-3.4
		S69,7.9,74.3,10.2c5.1,2.2,9.8,5.3,13.7,9.3c4,4,7.1,8.6,9.3,13.7c2.3,5.3,3.4,11,3.4,16.8s-1.1,11.5-3.4,16.8
		C95.2,72,92,76.6,88.1,80.6z"/>
	<path fill="#AF1F26" d="M57.5,44.9c-2.8,0-5.1,2.3-5.1,5.1s2.3,5.1,5.1,5.1s5.1-2.3,5.1-5.1S60.3,44.9,57.5,44.9z M57.5,53.3
		c-1.8,0-3.3-1.5-3.3-3.3s1.5-3.3,3.3-3.3s3.3,1.5,3.3,3.3S59.3,53.3,57.5,53.3z"/>
	<path fill="#AF1F26" d="M62.7,31.5c0,0.3,0.3,3.9,3.6,6.2h0l0,0c0,0,0,0,0,0l0,0c1.9,1.4,3.8,1.7,5.2,1.7c1,0,1.7-0.2,1.8-0.2
		c0.3-0.1,6.3-1.4,12.6-3.2c6.8-2,6.1-7.2,6-7.7c0,0,0,0,0,0c0,0,0,0,0,0c0,0,0,0,0-0.1c0,0,0-0.1,0-0.1c0,0,0-0.1,0-0.1
		c0,0,0,0,0-0.1c-5.6-8.6-14.1-14.8-24-17.4c0,0,0,0,0,0c0,0-0.1,0-0.1,0c0,0-0.1,0-0.1,0c0,0,0,0-0.1,0c0,0,0,0,0,0c0,0,0,0,0,0
		c-0.6,0.1-5.7,1-5.5,8C62.1,25,62.7,31.2,62.7,31.5z M85.4,34.3c-6.3,1.8-12.4,3.2-12.5,3.2c0,0,0,0,0,0c0,0-2.9,0.7-5.5-1.2
		c0,0,0,0,0,0c0,0,0,0,0,0c-2.6-1.9-2.9-4.8-2.9-4.9c0,0,0,0,0,0c0-0.1-0.6-6.3-0.8-12.8c0-0.7,0-1.4,0.1-1.9c2.4,0.4,4.7,1.1,7,2.1
		c4,1.7,7.7,4.2,10.8,7.3c2.3,2.3,4.2,4.8,5.7,7.6C86.7,33.8,86.1,34.1,85.4,34.3z M67.4,12.3c9.4,2.5,17.4,8.3,22.7,16.4
		c0.1,0.5,0.1,2.3-1.4,3.8c-5.1-9-13.9-15.6-24.5-17.7C65.2,12.9,66.9,12.4,67.4,12.3z"/>
	<path fill="#AF1F26" d="M98.4,47.5C98.4,47.5,98.3,47.5,98.4,47.5c0-0.1,0-0.1,0-0.1c0,0,0-0.1,0-0.1c0,0,0,0,0-0.1c0,0,0,0,0,0
		l0,0c-0.3-0.5-2.7-5.1-9.3-2.7c-6.1,2.2-11.7,4.6-12,4.8c-0.3,0.1-3.6,1.5-4.8,5.3l0,0l0,0c0,0,0,0,0,0l0,0
		c-1.3,3.8,0.6,6.8,0.8,7.1c0.2,0.3,3.3,5.6,6.9,10.9c2.2,3.2,4.5,4,6.4,4c1.7,0,2.8-0.7,2.9-0.7l0,0c0,0,0.1-0.1,0.1-0.1
		c0,0,0,0,0,0c0,0,0.1-0.1,0.1-0.1C95.7,67.8,99,57.8,98.4,47.5z M74.4,60.8C74.4,60.8,74.4,60.8,74.4,60.8c0-0.1-1.6-2.6-0.6-5.7
		c0,0,0,0,0,0c0,0,0,0,0,0c1-3.1,3.7-4.2,3.8-4.2c0,0,0,0,0,0c0.1,0,5.8-2.5,12-4.7c0.6-0.2,1.2-0.4,1.7-0.5
		c0.2,1.4,0.3,2.9,0.3,4.3c0,4.6-0.9,9-2.7,13.2c-1.5,3.7-3.7,7-6.4,9.9c-0.4-0.4-0.8-0.9-1.2-1.5C77.6,66.2,74.4,60.9,74.4,60.8z
		 M88,74.5c-0.5,0.2-2.2,0.9-4.2-0.3c5.9-6.4,9.5-14.9,9.5-24.2c0-1.5-0.1-3-0.3-4.4c2.4,0.2,3.4,1.8,3.6,2.2
		C97.2,57.5,94.1,67,88,74.5z"/>
	<path fill="#AF1F26" d="M64.1,68.1c-0.2-0.3-2.6-3-6.5-2.9h0c0,0-0.1,0-0.1,0c-3.9,0-6.3,2.7-6.5,2.9c-0.2,0.3-4.3,4.9-8.3,10
		c-4.4,5.6-0.7,9.4-0.3,9.8c0,0,0,0,0,0c0,0,0,0,0,0c0,0,0,0,0.1,0c0,0,0,0,0.1,0c0,0,0.1,0,0.1,0.1c0,0,0,0,0,0l0,0l0,0
		c4.8,1.8,9.8,2.8,14.8,2.8c5,0,10.1-0.9,14.9-2.8l0,0c0,0,0,0,0,0c0,0,0,0,0,0c0,0,0.1,0,0.1-0.1c0,0,0,0,0.1,0c0,0,0,0,0.1,0
		c0,0,0,0,0,0c0,0,0,0,0,0c0.4-0.4,4.1-4.1-0.3-9.7C68.3,73,64.3,68.4,64.1,68.1z M52.3,69.3C52.3,69.3,52.3,69.3,52.3,69.3
		c0-0.1,2-2.4,5.2-2.3c0,0,0,0,0,0l0,0l0,0l0,0l0,0c0,0,0,0,0,0c3.2,0,5.1,2.2,5.2,2.3c0,0,0,0,0,0c0,0,4.2,4.7,8.2,9.9
		c0.4,0.6,0.8,1.1,1,1.6c-0.4,0.2-0.8,0.4-1.2,0.6c-4.2,1.8-8.6,2.7-13.2,2.7s-9-0.9-13.2-2.7c-0.4-0.2-0.8-0.4-1.2-0.6
		c0.3-0.5,0.6-1,1-1.6C48.1,74,52.2,69.3,52.3,69.3z M43.5,86.5c-0.4-0.4-1.5-1.8-1-4c4.6,2.1,9.7,3.3,15.1,3.3
		c5.4,0,10.5-1.2,15.1-3.3c0.4,2.2-0.7,3.6-1.1,4C62.5,89.9,52.5,89.9,43.5,86.5z"/>
	<path fill="#AF1F26" d="M42.9,54.6L42.9,54.6C42.9,54.6,42.9,54.6,42.9,54.6C42.9,54.6,42.9,54.6,42.9,54.6
		C42.9,54.6,42.9,54.6,42.9,54.6c-1.2-3.8-4.5-5.2-4.8-5.3c-0.3-0.1-6-2.6-12-4.8c-6.7-2.4-9.2,2.3-9.4,2.7c0,0,0,0,0,0c0,0,0,0,0,0
		c0,0,0,0,0,0.1c0,0,0,0.1,0,0.1c0,0,0,0.1,0,0.1c0,0,0,0,0,0.1c-0.6,10.3,2.7,20.3,9.2,28.2c0,0,0.1,0.1,0.1,0.1c0,0,0,0,0,0
		c0,0,0.1,0.1,0.1,0.1c0.1,0,1.2,0.7,2.9,0.7c1.8,0,4.1-0.8,6.3-3.9c3.6-5.4,6.8-10.6,6.9-10.9C42.3,61.5,44.1,58.4,42.9,54.6z
		 M27,74.5c-6.1-7.5-9.2-16.9-8.7-26.7c0.3-0.5,1.3-2.1,3.7-2.2c-0.2,1.4-0.3,2.9-0.3,4.4c0,9.3,3.6,17.9,9.5,24.2
		C29.2,75.4,27.5,74.7,27,74.5z M40.6,60.8C40.6,60.8,40.6,60.8,40.6,60.8c0,0.1-3.2,5.4-6.9,10.9c-0.4,0.6-0.8,1-1.2,1.4
		c-2.7-2.9-4.9-6.2-6.4-9.9c-1.8-4.2-2.7-8.6-2.7-13.2c0-1.5,0.1-2.9,0.3-4.3c0.5,0.1,1.1,0.2,1.7,0.5c6.2,2.3,11.9,4.7,12,4.7
		c0,0,0,0,0,0c0,0,2.8,1.1,3.8,4.2c0,0,0,0,0,0l0,0C42.2,58.2,40.7,60.7,40.6,60.8z"/>
	<path fill="#AF1F26" d="M29.1,36c6.2,1.8,12.2,3.1,12.5,3.2c0.1,0,0.8,0.2,1.8,0.2c1.4,0,3.3-0.3,5.2-1.7c0,0,0,0,0,0c0,0,0,0,0,0
		l0,0l0,0c3.2-2.3,3.6-5.9,3.6-6.2c0-0.3,0.6-6.5,0.8-12.9c0.3-7.1-5-8-5.5-8.1c0,0,0,0,0,0c0,0,0,0,0,0c0,0,0,0-0.1,0
		c0,0-0.1,0-0.1,0c0,0-0.1,0-0.1,0c0,0,0,0-0.1,0c-9.9,2.6-18.5,8.8-24,17.5c0,0,0,0,0,0c0,0,0,0.1,0,0.1c0,0,0,0.1,0,0.1
		c0,0,0,0,0,0.1c0,0,0,0,0,0c0,0,0,0,0,0C23,28.9,22.3,34.1,29.1,36z M51.3,18.5c-0.2,6.6-0.8,12.8-0.8,12.8c0,0,0,0,0,0
		c0,0.1-0.2,3-2.9,4.9l0,0c0,0,0,0,0,0c-2.6,1.9-5.4,1.2-5.5,1.2c0,0,0,0,0,0c-0.1,0-6.1-1.4-12.5-3.2c-0.7-0.2-1.3-0.5-1.9-0.7
		c1.5-2.8,3.5-5.4,5.8-7.7c3.1-3.1,6.8-5.6,10.8-7.3c2.2-0.9,4.6-1.6,6.9-2.1C51.3,17.2,51.3,17.8,51.3,18.5z M47.5,12.3
		c0.5,0.1,2.2,0.6,3.2,2.6c-10.5,2-19.4,8.7-24.4,17.7c-1.6-1.5-1.5-3.3-1.4-3.8C30.1,20.7,38.1,14.8,47.5,12.3z"/>
	<path fill="#AF1F26" d="M49,44.3c-1.5,0.1-2.7,1.3-2.7,2.9c0,0.9,0.4,1.7,1,2.2c0,0.2,0,0.4,0,0.6c0,2.4,0.9,4.7,2.3,6.4
		c0,0.2-0.1,0.4-0.1,0.6c0,1.6,1.3,2.9,2.9,2.9c0.5,0,1-0.1,1.4-0.4c1.2,0.5,2.4,0.7,3.8,0.7c1.3,0,2.6-0.3,3.8-0.7
		c0.4,0.2,0.9,0.4,1.4,0.4c1.6,0,2.9-1.3,2.9-2.9c0-0.2,0-0.4-0.1-0.6c1.4-1.8,2.3-4,2.3-6.4c0-0.2,0-0.4,0-0.6
		c0.6-0.5,1.1-1.3,1.1-2.2c0-1.5-1.2-2.8-2.8-2.9c-1.3-2-3.4-3.5-5.8-4.2c-0.4-1.1-1.5-1.9-2.7-1.9c-1.2,0-2.3,0.8-2.7,1.9
		C52.4,40.8,50.3,42.3,49,44.3z M49.1,45.7c0.8,0,1.5,0.7,1.5,1.5s-0.7,1.5-1.5,1.5s-1.5-0.7-1.5-1.5S48.3,45.7,49.1,45.7z M50.8,57
		c0-0.8,0.7-1.5,1.5-1.5c0.8,0,1.5,0.7,1.5,1.5s-0.7,1.5-1.5,1.5C51.5,58.5,50.8,57.8,50.8,57z M62.7,58.5c-0.8,0-1.5-0.7-1.5-1.5
		s0.7-1.5,1.5-1.5s1.5,0.7,1.5,1.5S63.5,58.5,62.7,58.5z M67.4,47.2c0,0.8-0.7,1.5-1.5,1.5c-0.8,0-1.5-0.7-1.5-1.5s0.7-1.5,1.5-1.5
		C66.7,45.7,67.4,46.4,67.4,47.2z M64.2,44.9c-0.7,0.5-1.2,1.4-1.2,2.3c0,1.6,1.3,2.9,2.9,2.9c0,0,0,0,0.1,0c0,1.8-0.6,3.4-1.5,4.7
		c-0.5-0.4-1.1-0.7-1.8-0.7c-1.6,0-2.9,1.3-2.9,2.9c0,0.4,0.1,0.8,0.2,1.1c-0.8,0.3-1.6,0.4-2.5,0.4c-0.9,0-1.7-0.1-2.5-0.4
		c0.1-0.3,0.2-0.7,0.2-1.1c0-1.6-1.3-2.9-2.9-2.9c-0.7,0-1.3,0.3-1.8,0.7c-0.9-1.3-1.5-3-1.5-4.7c0,0,0.1,0,0.1,0
		c1.6,0,2.9-1.3,2.9-2.9c0-1-0.5-1.8-1.2-2.3c1-1.3,2.4-2.3,4-2.9c0.4,1.1,1.4,2,2.7,2c1.3,0,2.3-0.8,2.7-2
		C61.8,42.5,63.2,43.5,64.2,44.9z M57.5,39.6c0.8,0,1.5,0.7,1.5,1.5c0,0.8-0.7,1.5-1.5,1.5S56,41.9,56,41.1
		C56,40.3,56.7,39.6,57.5,39.6z"/>
</g>
</svg>
