<?xml version="1.0" encoding="utf-8"?>
<!-- Generator: Adobe Illustrator 18.1.1, SVG Export Plug-In . SVG Version: 6.00 Build 0)  -->
<svg version="1.1" baseProfile="tiny" id="Layer_1" xmlns="http://www.w3.org/2000/svg" xmlns:xlink="http://www.w3.org/1999/xlink"
	 x="0px" y="0px" viewBox="0 0 62 62" xml:space="preserve">
<path fill="#C12027" d="M34.6,29.1l9.5-9.5l2.5,2.5L56.5,10l-3.7-3.7l-12.1,9.8l2.5,2.5l-9.5,9.6L22.4,16.8c1.2-3,0.5-6.7-2-9.1
	c-1.7-1.7-3.9-2.5-6.2-2.5c-1.2,0-2.4,0.2-3.5,0.7l3.6,4.3l-3.8,3.7l-4.3-3.6c-1.4,3.2-0.8,7,1.8,9.6c1.7,1.7,3.9,2.5,6.2,2.5
	c1,0,2-0.1,3-0.5l11.2,11.2l-4.1,4.1l-2-2L5.9,51.7l5.1,5.1l16.4-16.4l-2-2l4.1-4.1l20,20c0.7,0.7,1.7,1.1,2.5,1.1
	c0.9,0,1.9-0.4,2.5-1.1l0,0c1.4-1.4,1.4-3.7,0-5.1L34.6,29.1z M52.7,8.2l1.9,1.9l-8,9.9l-3.7-3.7L52.7,8.2z M25.4,40.4L11.1,54.8
	l-3-3l14.4-14.4L25.4,40.4z M53.6,53.2c-0.4,0.4-0.9,0.7-1.5,0.7c-0.6,0-1.2-0.2-1.5-0.7L18.3,21l-0.7-0.7l-0.9,0.3
	C15.9,20.9,15,21,14.2,21c-2,0-3.8-0.7-5.1-2.1c-1.6-1.6-2.4-3.8-2-6.1l2.6,2.1l1,0.8l0.9-0.9l3.7-3.7l0.9-0.9l-0.8-1l-2.1-2.6
	c0.3-0.1,0.7-0.1,0.9-0.1c2,0,3.8,0.7,5.1,2.1c2,2,2.6,5,1.7,7.6l-0.4,1l0.7,0.7l32.3,32.3C54.5,51,54.5,52.4,53.6,53.2z"/>
</svg>
