<?xml version="1.0" encoding="utf-8"?>
<!-- Generator: Adobe Illustrator 18.1.1, SVG Export Plug-In . SVG Version: 6.00 Build 0)  -->
<svg version="1.1" baseProfile="tiny" id="Layer_1" xmlns="http://www.w3.org/2000/svg" xmlns:xlink="http://www.w3.org/1999/xlink"
	 x="0px" y="0px" viewBox="0 0 61 61" xml:space="preserve">
<g>
	<g>
		<path fill="#C12027" d="M30.5,60.8c-16.7,0-30.3-13.6-30.3-30.3c0-16.7,13.6-30.3,30.3-30.3s30.3,13.6,30.3,30.3
			C60.8,47.2,47.2,60.8,30.5,60.8z M30.5,2.2C14.9,2.2,2.2,14.9,2.2,30.5c0,15.6,12.7,28.3,28.3,28.3s28.3-12.7,28.3-28.3
			C58.8,14.9,46.1,2.2,30.5,2.2z M30.5,56c-3.4,0-6.6-0.6-9.7-1.9L20.6,54c-3.8-2.6-2.2-5.3-0.8-7.7l0.3-0.6c1-1.7,3.5-2.6,7.4-2.6
			c1.3,0,2.3,0.1,2.6,0.1c0.3,0,1.4-0.1,2.6-0.1c4,0,6.5,0.9,7.5,2.6l0.4,0.6c1.4,2.4,3,5.2-0.9,7.7c-0.2,0.1-0.3,0.2-0.3,0.2
			l-0.2,0.2l-0.2,0.1C36.4,55.5,33.5,56,30.5,56z M21.6,52.3c5.3,2.1,11.3,2.3,16.6,0.4c0.1-0.1,0.3-0.2,0.4-0.3
			c2.2-1.5,1.9-2.3,0.3-5.1l-0.4-0.6c-0.6-1-2.7-1.6-5.8-1.6c-1.4,0-2.5,0.1-2.5,0.1l-0.1,0l-0.1,0c0,0-1.1-0.1-2.5-0.1
			c-3.1,0-5.1,0.6-5.7,1.6l-0.3,0.6C19.9,50,19.5,50.9,21.6,52.3z M47.7,47.2c-0.4,0-0.7-0.1-1.1-0.2c-0.9-0.4-1.9-1.4-1.8-4.1
			c0.2-3.7,3-10.2,6.1-11.2c2.1-0.7,3.9-0.1,4.8,1.5l0.2,0.3l0,0.3c-0.5,3.7-1.7,7.2-3.8,10.4C50.4,46.3,49.1,47.2,47.7,47.2z
			 M52.6,33.4c-0.3,0-0.7,0.1-1,0.2c-1.7,0.5-4.5,5.7-4.7,9.4c-0.1,1.2,0.2,2,0.6,2.2c0.1,0,0.2,0.1,0.3,0.1c0.3,0,1.2-0.2,2.7-2.2
			c1.7-2.7,2.9-5.8,3.4-9.1C53.5,33.5,53.1,33.4,52.6,33.4z M12.8,47.2c-0.7,0-1.5-0.3-2.2-0.8l-0.2-0.2c-2.9-3.8-4.7-8.3-5.2-13
			l0-0.5l0.3-0.3c1-1,2.5-1.3,4.2-0.7c3,1,5.8,7.5,6.1,11.2c0.2,2.7-0.9,3.7-1.8,4.1C13.5,47.1,13.1,47.2,12.8,47.2z M11.8,44.8
			c0.5,0.3,0.9,0.5,1.2,0.3c0.4-0.2,0.7-1,0.6-2.2c-0.2-3.7-3-8.9-4.7-9.4c-0.7-0.2-1.3-0.2-1.8,0C7.7,37.6,9.3,41.5,11.8,44.8z
			 M48.5,26.6c-2.1,0-4.2-0.6-6.6-1.3c-3.2-0.9-6.7-2-11.6-2c-4.9,0.1-8.4,1.1-11.6,2c-2.4,0.7-4.5,1.3-6.6,1.3
			c-1.3,0-2.4-0.2-3.6-0.7c-0.8-0.2-1.9-0.9-2.2-2.8l-0.1-0.3l0.1-0.2C9.6,12.1,19.4,5,30.5,5C41,5,50.6,11.6,54.4,21.4l0.1,0.2
			l0,0.2c-0.1,3-1.6,3.9-2.5,4.1C50.9,26.4,49.7,26.6,48.5,26.6z M30.2,21.3L30.2,21.3c5.2,0.1,9,1.2,12.2,2.1
			c2.3,0.7,4.2,1.2,6.1,1.2c1,0,2-0.2,2.9-0.5c0.8-0.2,1.1-1.2,1.1-2.1C48.9,13,40.1,7,30.5,7C20.3,7,11.4,13.4,8.2,23
			C8.4,23.9,8.9,24,9,24c2.8,1.1,5.5,0.3,9-0.7C21.2,22.5,25,21.3,30.2,21.3L30.2,21.3z"/>
	</g>
</g>
</svg>
