<?xml version="1.0" encoding="utf-8"?>
<!-- Generator: Adobe Illustrator 18.1.1, SVG Export Plug-In . SVG Version: 6.00 Build 0)  -->
<svg version="1.1" baseProfile="tiny" id="Layer_1" xmlns="http://www.w3.org/2000/svg" xmlns:xlink="http://www.w3.org/1999/xlink"
	 x="0px" y="0px" viewBox="0 0 62 62" xml:space="preserve">
<g>
	<circle fill="#C12027" cx="31" cy="33.1" r="4.6"/>
	<path fill="none" stroke="#C12027" stroke-width="2" stroke-miterlimit="10" d="M31,1.7C14.8,1.7,1.7,14.8,1.7,31
		c0,16.2,13.1,29.3,29.3,29.3c16.2,0,29.3-13.1,29.3-29.3C60.3,14.8,47.2,1.7,31,1.7z M31,6.5c10.5,0,19.4,6.6,22.9,15.8
		c0,1.3-0.4,2.8-1.8,3.2c-5.8,2.2-10.7-2.6-21.5-2.7c-10.8,0.2-15.6,5-21.4,2.7c-1-0.3-1.4-1.1-1.6-2.1C10.8,13.6,20.1,6.5,31,6.5z
		 M13.9,46.6c-0.8,0.3-1.6,0-2.3-0.5c-2.7-3.5-4.5-7.8-5-12.5c0.7-0.7,1.7-1,3.2-0.5C13,34.2,17.2,45.1,13.9,46.6z M39.7,53.8
		c-0.2,0.1-0.3,0.3-0.4,0.4c-2.6,0.9-5.4,1.4-8.3,1.4c-3.3,0-6.5-0.7-9.3-1.8c-3.3-2.2-1.8-4.2-0.2-7c1.6-2.8,9.2-1.9,9.2-1.9
		s7.6-0.9,9.3,1.9C41.6,49.6,43.1,51.5,39.7,53.8z M51.7,44.1c-1.1,1.4-2.7,3.1-4.2,2.4c-3.3-1.5,0.9-12.4,4.2-13.5
		c1.8-0.6,3,0,3.6,1.1C54.9,37.8,53.6,41.2,51.7,44.1z"/>
</g>
</svg>
