<?xml version="1.0" encoding="utf-8"?>
<!-- Generator: Adobe Illustrator 18.1.1, SVG Export Plug-In . SVG Version: 6.00 Build 0)  -->
<svg version="1.1" baseProfile="tiny" id="Layer_1" xmlns="http://www.w3.org/2000/svg" xmlns:xlink="http://www.w3.org/1999/xlink"
	 x="0px" y="0px" width="115px" height="95px" viewBox="0 0 115 95" xml:space="preserve">
<g>
	<path fill="#AF1F26" d="M54.6,69.1c-1.7,1.7-1.7,4.5,0,6.2c0.8,0.8,1.9,1.3,3.1,1.3c1.2,0,2.3-0.5,3.1-1.3c1.7-1.7,1.7-4.5,0-6.2
		C59.1,67.4,56.3,67.4,54.6,69.1z M59.4,73.9c-0.9,0.9-2.6,0.9-3.5,0c-1-1-1-2.5,0-3.5c0.5-0.5,1.1-0.7,1.8-0.7s1.3,0.3,1.7,0.7
		C60.4,71.4,60.4,73,59.4,73.9z"/>
	<path fill="#AF1F26" d="M76.4,47.5l1.2-1.5c-5.9-4.4-12.8-6.8-20-6.8c-18,0-32.8,14.4-33.3,32.3H12.7c0.5-24.3,20.4-43.9,44.8-43.9
		c10.7,0,21.1,3.9,29.3,10.9l1.3-1.5c-8.5-7.4-19.3-11.4-30.5-11.4c-25.8,0-46.8,21-46.8,46.7c0,0.5,0.4,1,1,1h13.4c0.5,0,1-0.4,1-1
		c0-17.3,14.1-31.4,31.4-31.4C64.3,41.1,70.9,43.3,76.4,47.5z"/>
	<path fill="#AF1F26" d="M91.3,43.1c6.9,7.9,10.8,18,11,28.4H90.8c-0.2-7-2.5-13.6-6.8-19.2l-1.5,1.2c4.2,5.5,6.4,12.1,6.4,19
		c0,0.5,0.4,1,1,1h13.4c0.5,0,1-0.4,1-1c0-11.2-4.1-22.1-11.5-30.6L91.3,43.1z"/>
	
		<rect x="10.4" y="45.4" transform="matrix(-0.8659 -0.5002 0.5002 -0.8659 1.5883 93.0572)" fill="#AF1F26" width="5.7" height="1.9"/>
	
		<rect x="16" y="33.7" transform="matrix(-0.7068 -0.7075 0.7075 -0.7068 10.3242 73.6397)" fill="#AF1F26" width="8.8" height="1.9"/>
	<rect x="0" y="71" fill="#AF1F26" width="8.8" height="1.9"/>
	
		<rect x="7.1" y="55.7" transform="matrix(-0.2618 0.9651 -0.9651 -0.2618 66.6214 66.1305)" fill="#AF1F26" width="1.9" height="5.7"/>
	
		<rect x="41.9" y="21.6" transform="matrix(-0.2593 -0.9658 0.9658 -0.2593 34.4801 71.6373)" fill="#AF1F26" width="5.7" height="1.9"/>
	<rect x="57.1" y="15" fill="#AF1F26" width="1.9" height="8.8"/>
	
		<rect x="29.5" y="26.6" transform="matrix(-0.4968 -0.8679 0.8679 -0.4968 24.4722 69.3686)" fill="#AF1F26" width="5.7" height="1.9"/>
	
		<rect x="70.5" y="20.1" transform="matrix(-0.9651 -0.2618 0.2618 -0.9651 134.4751 63.7953)" fill="#AF1F26" width="1.9" height="5.7"/>
	
		<rect x="82.8" y="25.4" transform="matrix(-0.866 -0.5001 0.5001 -0.866 142.111 94.5558)" fill="#AF1F26" width="1.9" height="5.7"/>
	<rect x="106.2" y="72.1" fill="#AF1F26" width="8.8" height="1.9"/>
	
		<rect x="104.4" y="58.8" transform="matrix(-0.9659 0.2589 -0.2589 -0.9659 226.3542 89.7343)" fill="#AF1F26" width="5.7" height="1.9"/>
	
		<rect x="101.3" y="44.6" transform="matrix(-0.498 -0.8672 0.8672 -0.498 112.1143 159.7774)" fill="#AF1F26" width="1.9" height="5.7"/>
	<path fill="#AF1F26" d="M98.1,33.2c0.3-0.4,0.3-0.9-0.1-1.3c-0.4-0.4-0.9-0.4-1.3-0.1L58.2,64.5c-2.2-0.1-4.4,0.7-6,2.2
		c-3,3-3,8,0,11c1.5,1.5,3.4,2.3,5.5,2.3c2.1,0,4-0.8,5.5-2.3c1.6-1.6,2.4-3.7,2.2-6L98.1,33.2z M61.9,76.4
		c-1.1,1.1-2.6,1.7-4.1,1.7c-1.6,0-3-0.6-4.1-1.7c-2.3-2.3-2.3-6,0-8.3c1.1-1.1,2.6-1.7,4.1-1.7c0.2,0,0.5,0,0.7,0
		c0.3,0,0.5-0.1,0.7-0.2l30.1-25.4L63.7,70.8c-0.2,0.2-0.3,0.5-0.2,0.7C63.7,73.3,63.1,75.1,61.9,76.4z"/>
</g>
</svg>
