<?xml version="1.0" encoding="utf-8"?>
<!-- Generator: Adobe Illustrator 18.1.1, SVG Export Plug-In . SVG Version: 6.00 Build 0)  -->
<svg version="1.1" baseProfile="tiny" id="Layer_1" xmlns="http://www.w3.org/2000/svg" xmlns:xlink="http://www.w3.org/1999/xlink"
	 x="0px" y="0px" viewBox="0 0 62 62" xml:space="preserve">
<g>
	<path fill="#C12027" d="M52.1,32c0-0.4-0.3-0.7-0.6-0.8L35.3,24c-0.3-0.2-0.7-0.1-1,0.1l-4.8,3.4l4.6-9.3l6.1,3.1
		c0.2,0.1,0.5,0.2,0.8,0.2c0.6,0,1.2-0.4,1.5-0.9l2.5-4.9c0.4-0.8,0.1-1.8-0.8-2.3L19.6,1c-0.2-0.1-0.5-0.2-0.8-0.2
		c-0.6,0-1.2,0.4-1.5,0.9l-2.5,4.9c-0.4,0.8-0.1,1.8,0.8,2.3l6.1,3.1L8.3,38.9c-0.2,0.5-0.3,1-0.1,1.5c0.2,0.5,0.5,0.9,1,1.1
		l8.9,4.5c0.3,0.1,0.6,0.2,0.9,0.2c0.6,0,1.2-0.3,1.6-0.8l0.8,7.6c0,0.4,0.3,0.7,0.6,0.8l16.2,7.2c0.1,0.1,0.3,0.1,0.4,0.1
		c0.2,0,0.4-0.1,0.6-0.2l14.4-10.4c0.3-0.2,0.5-0.6,0.4-0.9L52.1,32z M22.8,36.4l-9.9-2.1l2.9-5.8c0.1,0,0.1,0.1,0.2,0.1l9.7,2.1
		L22.8,36.4z M19.4,21.2C19.5,21.2,19.5,21.2,19.4,21.2l9.9,2.1l-2.7,5.4l-9.9-2.1L19.4,21.2z M19,3L43,15l-2.1,4.3l-7.3-3.6
		c0,0,0,0,0,0l-9.2-4.6l-7.6-3.8L19,3z M32.4,17.3l-2.1,4.1l-9.9-2.1l3.2-6.4L32.4,17.3z M18.9,44.2l-8.8-4.4l1.8-3.6c0,0,0,0,0,0
		l9.9,2.1L18.9,44.2z M38.4,59l-15.1-6.8l-1-9.9c0-0.1,0-0.1,0-0.2l5.4-10.8c0.1,0,0.3-0.1,0.4-0.2l6.9-5l15.1,6.8l1.7,16.5L38.4,59
		z"/>
	<path fill="#C12027" d="M36.7,35.9c-3.7,0-6.7,3-6.7,6.7c0,3.7,3,6.7,6.7,6.7c3.7,0,6.7-3,6.7-6.7C43.4,38.9,40.4,35.9,36.7,35.9z
		 M36.7,47.1c-2.5,0-4.6-2.1-4.6-4.6c0-2.5,2.1-4.6,4.6-4.6c2.5,0,4.6,2.1,4.6,4.6C41.3,45.1,39.3,47.1,36.7,47.1z"/>
</g>
</svg>
