<?xml version="1.0" encoding="utf-8"?>
<!-- Generator: Adobe Illustrator 18.1.1, SVG Export Plug-In . SVG Version: 6.00 Build 0)  -->
<svg version="1.1" baseProfile="tiny" id="Layer_1" xmlns="http://www.w3.org/2000/svg" xmlns:xlink="http://www.w3.org/1999/xlink"
	 x="0px" y="0px" viewBox="0 0 62 62" xml:space="preserve">
<g>
	<g>
		<polygon fill="#C12027" points="52.6,23.1 51.1,21.6 54.6,18 51.1,14.5 52.6,13 57.7,18 		"/>
	</g>
	<g>
		<polygon fill="#C12027" points="52.6,49 51.1,47.5 54.6,43.9 51.1,40.4 52.6,38.9 57.7,43.9 		"/>
	</g>
	<g>
		<path fill="#C12027" d="M17.3,45h-13v-2.2h13c5.8,0,8.8-6,12-12.4C32.6,23.9,36,17,43.2,17h12.9v2.2H43.2c-5.8,0-8.8,6-12,12.4
			C27.9,38.1,24.4,45,17.3,45z"/>
	</g>
	<g>
		<path fill="#C12027" d="M56.1,45H43.2c-7.1,0-10.6-6.9-13.9-13.5c-3.2-6.4-6.2-12.4-12-12.4h-13V17h13c7.1,0,10.6,6.9,13.9,13.5
			c3.2,6.4,6.2,12.4,12,12.4h12.9V45z"/>
	</g>
</g>
</svg>
