<?xml version="1.0" encoding="utf-8"?>
<!-- Generator: Adobe Illustrator 18.1.1, SVG Export Plug-In . SVG Version: 6.00 Build 0)  -->
<svg version="1.1" baseProfile="tiny" id="Layer_1" xmlns="http://www.w3.org/2000/svg" xmlns:xlink="http://www.w3.org/1999/xlink"
	 x="0px" y="0px" viewBox="0 0 115 100" xml:space="preserve">
<g>
	<g>
		<path fill="#AF1F26" d="M57.5,5c-24.8,0-45,20.2-45,45c0,24.8,20.2,45,45,45s45-20.2,45-45C102.5,25.2,82.3,5,57.5,5z M57.5,93.3
			c-23.9,0-43.3-19.4-43.3-43.3c0-23.9,19.4-43.3,43.3-43.3s43.3,19.4,43.3,43.3C100.8,73.9,81.4,93.3,57.5,93.3z"/>
		<path fill="#AF1F26" d="M60.5,39.9l0.5,0.2c1.1,0.4,2.2,1,3.2,1.8l0.4,0.4l13.4-6.8l-0.6-0.8c-4.1-5.3-10-8.8-16.7-9.6l-1.2,0
			l0.2,1L60.5,39.9z M75.4,34.9l-10.5,5.4c-0.8-0.6-1.7-1.2-2.7-1.6l-0.6-11.8C67,27.9,71.9,30.7,75.4,34.9z"/>
		<path fill="#AF1F26" d="M50.7,42c1-0.9,2.1-1.5,3.3-1.9l0.5-0.2l0.8-13.8l0.2-1.2L54.4,25c-6.7,0.8-12.9,4.4-17,9.9l-0.7,0.9
			l13.5,6.7L50.7,42z M39.4,35.1c3.6-4.3,8.7-7.3,14.2-8.2l-0.7,11.8c-1,0.4-2,1-2.9,1.7L39.4,35.1z"/>
		<path fill="#AF1F26" d="M57.5,18.4c-17.4,0-31.6,14.2-31.6,31.6c0,17.4,14.2,31.6,31.6,31.6S89.1,67.4,89.1,50
			C89.1,32.6,74.9,18.4,57.5,18.4z M57.5,79.8C41,79.8,27.7,66.5,27.7,50c0-16.5,13.4-29.8,29.8-29.8S87.3,33.5,87.3,50
			C87.3,66.5,74,79.8,57.5,79.8z"/>
		<path fill="#AF1F26" d="M63.8,50c0-3.5-2.8-6.3-6.3-6.3c-3.5,0-6.3,2.8-6.3,6.3c0,3.5,2.8,6.3,6.3,6.3C61,56.3,63.8,53.5,63.8,50z
			 M57.5,54.6c-2.5,0-4.6-2-4.6-4.6c0-2.5,2-4.6,4.6-4.6c2.5,0,4.6,2,4.6,4.6C62,52.5,60,54.6,57.5,54.6z"/>
		<path fill="#AF1F26" d="M80.7,40.1l-0.5-0.9l-12.5,8.3l0.1,0.6C68,48.8,68,49.4,68,50c0,0.6-0.1,1.2-0.2,2l-0.1,0.6l11.5,7.5
			l1.1,0.8l0.4-1c1.3-3.1,2-6.5,2-9.9C82.7,46.6,82,43.3,80.7,40.1z M79.5,58.2l-9.9-6.5c0.1-0.6,0.1-1.2,0.1-1.7
			c0-0.5,0-1.1-0.1-1.7l9.9-6.5c1,2.6,1.5,5.4,1.5,8.2C81,52.8,80.5,55.6,79.5,58.2z"/>
		<path fill="#AF1F26" d="M47.2,51.9C47.1,51.4,47,50.7,47,50c0-0.7,0.1-1.3,0.2-1.8l0.1-0.6l-11.5-7.4l-1.1-0.7l-0.4,0.9
			c-1.3,3.1-1.9,6.3-1.9,9.6c0,3.3,0.6,6.6,1.9,9.6l0.5,0.9l12.6-8.1L47.2,51.9z M45.4,51.6L35.5,58c-0.9-2.6-1.4-5.3-1.4-8
			c0-2.7,0.5-5.4,1.4-8l9.9,6.4c-0.1,0.5-0.1,1-0.1,1.6C45.2,50.6,45.3,51.1,45.4,51.6z"/>
		<path fill="#AF1F26" d="M54,59.9c-1.2-0.4-2.3-1.1-3.3-1.9l-0.4-0.4l-12.5,6.2l-1,0.4l0.7,0.9c4.1,5.4,10.3,9,17,9.9l1.1,0.1
			l-1-15L54,59.9z M39.4,64.9L50,59.6c0.9,0.7,1.9,1.3,2.9,1.7l0.7,11.8C48.1,72.2,43,69.3,39.4,64.9z"/>
		<path fill="#AF1F26" d="M64.2,58c-1,0.8-2,1.4-3.2,1.8l-0.5,0.2l-0.7,13.8l-0.3,1.2l1.2-0.2c6.6-0.9,12.6-4.3,16.7-9.6l0.6-0.8
			l-13.4-6.8L64.2,58z M75.4,65.1c-3.6,4.2-8.4,7-13.8,8l0.6-11.8c1-0.4,1.9-0.9,2.7-1.6L75.4,65.1z"/>
	</g>
</g>
</svg>
