<?xml version="1.0" encoding="utf-8"?>
<!-- Generator: Adobe Illustrator 18.1.1, SVG Export Plug-In . SVG Version: 6.00 Build 0)  -->
<svg version="1.1" baseProfile="tiny" id="Layer_1" xmlns="http://www.w3.org/2000/svg" xmlns:xlink="http://www.w3.org/1999/xlink"
	 x="0px" y="0px" viewBox="0 0 115 100" xml:space="preserve">
<g>
	<g>
		<g>
			<path fill="#C12027" d="M57.5,99.1L57,98.9c-26-13.8-42.2-40.6-42.2-70c0-3.9,0.3-8,1-12.1l0.1-0.8l0.8-0.1
				c0.3,0,29.1-3.5,40-14.3l0.7-0.7l0.7,0.6C70,12,98.1,15.9,98.3,15.9l0.7,0.1l0.1,0.7c0.6,4.2,0.9,8.2,0.9,12.1
				c0,29.4-16.2,56.2-42.2,70L57.5,99.1z M17.7,17.8c-0.5,3.7-0.8,7.5-0.8,11.1c0,28.5,15.6,54.5,40.6,68
				c25.1-13.5,40.6-39.5,40.6-68c0-3.6-0.3-7.2-0.8-11.1c-4.6-0.7-28.2-4.5-39.9-14.2C46.6,13.6,22.4,17.2,17.7,17.8z"/>
		</g>
	</g>
	<g>
		<g>
			<path fill="#C12027" d="M57.5,84.9L57,84.6c-18.4-9.7-29.8-28.7-29.8-49.4c0-2.8,0.2-5.7,0.7-8.6l0.1-0.8l0.8-0.1
				c0.2,0,20.3-2.5,28-10l0.7-0.7l0.7,0.6c8.3,7.3,27.9,10,28.1,10l0.7,0.1l0.1,0.7c0.4,3,0.7,5.8,0.7,8.6
				c0,20.8-11.4,39.7-29.8,49.4L57.5,84.9z M29.8,27.7c-0.4,2.5-0.5,5.1-0.5,7.5c0,19.8,10.8,38,28.3,47.4
				C74.9,73.1,85.8,55,85.8,35.2c0-2.5-0.2-4.9-0.5-7.5c-3.7-0.6-19.6-3.3-27.7-9.8C49.8,24.6,33.6,27.2,29.8,27.7z"/>
		</g>
	</g>
</g>
</svg>
