<?xml version="1.0" encoding="utf-8"?>
<!-- Generator: Adobe Illustrator 18.1.1, SVG Export Plug-In . SVG Version: 6.00 Build 0)  -->
<svg version="1.1" baseProfile="tiny" id="Layer_1" xmlns="http://www.w3.org/2000/svg" xmlns:xlink="http://www.w3.org/1999/xlink"
	 x="0px" y="0px" viewBox="0 0 61 61" xml:space="preserve">
<g>
	<path fill="none" d="M49,33.2c-2.3,1.5-6.9,2.1-11.1,2.1l0,0c-0.9,0-1.8,0.1-2.6,0.1l0.1,3.7c0.8,0.1,1.7,0.1,2.7,0.1
		c5.8,0,10.1-1.3,11-2.6l0,0V36h0.1L49,33.2z"/>
	<path fill="none" d="M22.9,32.5c6.3,0,10.5-1.4,10.9-2.6v-0.2c0-1.2-4.3-2.8-10.9-2.8c-0.1,0-0.2,0-0.3,0c-0.3,0-0.6,0-0.9,0
		c-2.8,0.1-5,0.5-6.7,0.9c-0.1,0.1-0.3,0.1-0.3,0.1c-0.1,0-0.1,0-0.1,0.1c-1.3,0.4-2.1,0.9-2.4,1.3c-0.1,0.1-0.1,0.3-0.1,0.4
		C11.9,30.8,16.2,32.5,22.9,32.5z"/>
	<path fill="none" d="M35.3,30.4l0.1,3.7c0.8,0.1,1.7,0.1,2.6,0.1c6.4,0,10.5-1.5,11.1-2.7v-0.3h0.1v-3c-2.3,1.5-7,2.2-11.1,2.2
		C37.1,30.5,36.2,30.5,35.3,30.4z"/>
	<path fill="none" d="M27.1,16.2c0,1.2,4.3,2.8,11,2.8c6.3,0,10.5-1.4,10.9-2.6v-0.2c0-1.2-4.3-2.8-10.9-2.8c-0.2,0-0.5,0-0.7,0
		c-0.2,0-0.3,0-0.6,0c-3.5,0.1-6.3,0.7-7.9,1.4c-0.1,0.1-0.3,0.1-0.4,0.2l0,0c-0.3,0.1-0.6,0.3-0.8,0.4c-0.1,0-0.1,0.1-0.1,0.1
		c-0.1,0-0.1,0.1-0.1,0.1C27.2,15.7,27.1,16,27.1,16.2z"/>
	<path fill="none" d="M38,40.6c-1,0-1.9,0-2.7-0.1l0.1,3.5c0.9,0.1,1.7,0.1,2.7,0.1c6.7,0,11.1-1.7,11.1-2.8l-0.1-3
		C47,39.8,42.9,40.6,38,40.6z"/>
	<path fill="none" d="M38,24.1c6.7,0,11.1-1.7,11.1-2.8l-0.1-3c-2.2,1.4-6.6,2.1-11,2.1c-4.5,0-8.9-0.8-11.1-2.2v3l0,0
		c0,0.1,0,0.1,0,0.1l0,0C27,22.1,30.3,24.1,38,24.1z"/>
	<path fill="none" d="M35.1,29c1,0.1,1.9,0.1,2.9,0.1c6.1,0,10.4-1.4,11.1-2.7v-0.1l0,0c0-0.1,0.1-0.1,0.1-0.2v-3
		c-2.2,1.4-6.6,2.1-11.1,2.1c-4.4,0-8.9-0.8-11-2.1v2.5C31.1,26.2,34.4,27.3,35.1,29z"/>
	<path fill="none" d="M11.9,39.8c0,0.8,3.3,2.8,11.1,2.8s11.1-2,11.1-2.8v-3.1c-2.2,1.4-6.6,2.1-11.1,2.1c-4.4,0-8.9-0.8-11-2.1
		L11.9,39.8L11.9,39.8z"/>
	<path fill="none" d="M23,44c-4.4,0-8.9-0.8-11.1-2.2v3c0,0.8,3.3,2.8,11.1,2.8s11.1-2,11.1-2.8v-3C31.8,43.3,27.4,44,23,44z"/>
	<path fill="none" d="M11.9,34.7c0,0.8,3.3,2.8,11,2.8c6.7,0,11.1-1.7,11.1-2.8l-0.1-3c-2.2,1.4-6.6,2.1-11,2.1
		c-4.4,0-8.9-0.8-11-2.2V34.7L11.9,34.7z"/>
	<path fill="#C12027" d="M10.5,39.3L10.5,39.3c-0.1,0.2-0.1,0.4,0,0.5v5c0,2.8,6.3,4.2,12.5,4.2c5.7,0,11.5-1.2,12.3-3.6
		c0.9,0.1,1.8,0.1,2.8,0.1c6.2,0,12.5-1.4,12.5-4.1l-0.1-4.4l0.1-0.1v-0.3c0-0.1,0-0.1,0-0.2l-0.1-4.7c0-0.1,0.1-0.1,0.1-0.3
		l-0.1-4.7c0-0.1,0.1-0.2,0.1-0.3v-4.7l0,0c0,0,0.1-0.2,0.1-0.3l-0.1-4.7c0-0.1,0.1-0.3,0.1-0.3c0-2.8-6.2-4.2-12.4-4.2l0,0l0,0
		c-6.2,0-12.4,1.5-12.4,4.3v5l0,0v4.3c-0.9-0.1-1.8,0.1-2.8,0.1l0,0l0,0c-6.1,0-12.4,1.2-12.4,4v4.6l0,0c-0.1,0.2,0,0.4,0,0.5
		L10.5,39.3L10.5,39.3z M14.4,28c0.1,0,0.1,0,0.1-0.1c0.1-0.1,0.3-0.1,0.3-0.1c1.7-0.5,3.9-0.8,6.7-0.9c0.3,0,0.6,0,0.9,0
		c0.1,0,0.2,0,0.3,0c6.7,0,10.9,1.7,10.9,2.8v0.2c-0.5,1.1-4.6,2.6-10.9,2.6c-6.7,0-11-1.7-11-2.8c0-0.1,0.1-0.3,0.1-0.4
		C12.4,28.9,13.2,28.4,14.4,28z M49,36.6L49,36.6c-0.9,1.3-5.2,2.6-11,2.6c-1,0-1.9,0-2.7-0.1l-0.1-3.7c0.8,0,1.7-0.1,2.6-0.1l0,0
		c4.1,0,8.8-0.6,11.1-2.1V36H49V36.6z M49.1,31.2L49.1,31.2L49,31.5c-0.6,1.2-4.7,2.7-11.1,2.7c-0.9,0-1.8,0-2.6-0.1l-0.1-3.7
		c0.9,0.1,1.8,0.1,2.8,0.1c4.1,0,8.7-0.7,11.1-2.2V31.2z M22.9,33.8c4.4,0,8.8-0.8,11-2.1l0.1,3c0,1.2-4.3,2.8-11.1,2.8
		c-7.7,0-11-2-11-2.8l0,0v-3.1C14,33.1,18.5,33.8,22.9,33.8z M22.9,38.9c4.4,0,8.9-0.8,11.1-2.1v3.1c0,0.8-3.3,2.8-11.1,2.8
		s-11.1-2-11.1-2.8l0,0v-3.2C14.1,38.2,18.5,38.9,22.9,38.9z M23,47.7c-7.8,0-11.1-2-11.1-2.8v-3C14.1,43.3,18.5,44,23,44
		c4.4,0,8.8-0.8,11-2.1v3C34,45.7,30.7,47.7,23,47.7z M38,44.2c-0.9,0-1.8-0.1-2.7-0.1l-0.1-3.5c0.8,0.1,1.7,0.1,2.7,0.1
		c4.9,0,8.9-0.8,11.1-2.2l0.1,3.1C49.1,42.6,44.8,44.2,38,44.2z M27,21.2L27,21.2L27,21.2v-3.1c2.1,1.4,6.6,2.2,11.1,2.2
		c4.4,0,8.8-0.8,11-2.1l0.1,3c0,1.2-4.3,2.8-11.1,2.8C30.3,24.1,27,22.1,27,21.2L27,21.2z M27.6,15.5c0,0,0.1-0.1,0.1-0.1
		c0.2-0.1,0.5-0.3,0.8-0.4l0,0c0.1-0.1,0.3-0.1,0.4-0.2c1.7-0.7,4.4-1.2,7.9-1.4c0.2,0,0.3,0,0.6,0c0.2,0,0.4,0,0.7,0
		c6.7,0,10.9,1.7,10.9,2.8v0.2C48.5,17.5,44.4,19,38,19c-6.7,0-11-1.7-11-2.8c0-0.2,0.1-0.4,0.4-0.6C27.5,15.5,27.6,15.5,27.6,15.5z
		 M27,23.2c2.2,1.4,6.6,2.1,11,2.1c4.4,0,8.9-0.8,11.1-2.1v3c0,0.1-0.1,0.1-0.1,0.2l0,0v0.1c-0.7,1.3-5,2.7-11.1,2.7
		c-1,0-1.9-0.1-2.9-0.1c-0.7-1.7-4.1-2.8-8.1-3.3L27,23.2L27,23.2z"/>
</g>
</svg>
