<?xml version="1.0" encoding="utf-8"?>
<!-- Generator: Adobe Illustrator 18.1.1, SVG Export Plug-In . SVG Version: 6.00 Build 0)  -->
<svg version="1.1" baseProfile="tiny" id="Layer_1" xmlns="http://www.w3.org/2000/svg" xmlns:xlink="http://www.w3.org/1999/xlink"
	 x="0px" y="0px" viewBox="0 0 62 62" xml:space="preserve">
<path fill="#C12027" d="M50.5,25.5V24c0-10.7-8.7-19.5-19.5-19.5c-10.7,0-19.5,8.7-19.5,19.5v1.5c-2.8,0.2-7,1.6-7,5.5v7
	c0,4.4,5.1,5.5,7.9,5.5c0.5,0,0.9-0.4,0.9-0.9V31c0-0.5-0.4-0.9-0.9-0.9c-0.5,0-0.9,0.4-0.9,0.9v10.7c-1.7-0.2-5.2-0.9-5.2-3.7v-7
	c0-3.7,6-3.7,6.1-3.7c0.5,0,0.9-0.4,0.9-0.9V24c0-9.7,7.9-17.7,17.7-17.7c9.7,0,17.7,7.9,17.7,17.7v2.3c0,0.5,0.4,0.9,0.9,0.9
	c0.1,0,6.1,0,6.1,3.7v7c0,2.8-3.5,3.5-5.2,3.7V31c0-0.5-0.4-0.9-0.9-0.9c-0.5,0-0.9,0.4-0.9,0.9v11.6c0,3.1-1,10.2-9.8,10.7v-1.4
	c0-1.3-0.9-3.2-3.2-3.2h-9.3c-2.9,0-4.4,2.2-4.4,4.4c0,2.2,1.5,4.4,4.4,4.4h9.3c0.5,0,0.9-0.4,0.9-0.9c0-0.5-0.4-0.9-0.9-0.9h-9.3
	c-1.8,0-2.6-1.3-2.6-2.6c0-1.3,0.8-2.6,2.6-2.6h9.3c1.3,0,1.4,1,1.4,1.4v2.3c0,0.5,0.4,0.9,0.9,0.9c4.5,0,7.8-1.4,10-4.2
	c1.8-2.4,2.4-5.2,2.5-7.4c2.8-0.2,7-1.6,7-5.5v-7C57.4,27.1,53.3,25.7,50.5,25.5z"/>
</svg>
