<?xml version="1.0" encoding="utf-8"?>
<!-- Generator: Adobe Illustrator 18.1.1, SVG Export Plug-In . SVG Version: 6.00 Build 0)  -->
<svg version="1.1" baseProfile="tiny" id="Layer_1" xmlns="http://www.w3.org/2000/svg" xmlns:xlink="http://www.w3.org/1999/xlink"
	 x="0px" y="0px" viewBox="0 0 62 62" xml:space="preserve">
<g>
	<path fill="#C12027" stroke="#C12027" stroke-miterlimit="10" d="M45.5,47H7.1v-3.8h38.3V47z M7.7,46.4h37.1v-2.5H7.7V46.4z
		 M26.3,40.7c-10.6,0-19.2-8.6-19.2-19.2V15h38.3v3.2c5.2,0.2,9.4,4.5,9.4,9.7c0,5.4-4.4,9.7-9.7,9.7h-6.3c-0.6,0-1.2-0.1-1.8-0.2
		C33.9,39.6,30.1,40.7,26.3,40.7z M7.7,15.6v6c0,10.2,8.3,18.6,18.6,18.6c3.8,0,7.4-1.1,10.5-3.3l0.1-0.1l0.1,0
		c0.6,0.1,1.2,0.2,1.8,0.2h6.3c5,0,9.1-4.1,9.1-9.1c0-5-4.1-9.1-9.1-9.1h-0.3v-3.1H7.7z M45.1,34.4h-5.5l0.5-0.5
		c3.1-3.4,4.8-7.8,4.8-12.4v-0.3h0.3c3.6,0,6.6,2.9,6.6,6.6C51.8,31.5,48.8,34.4,45.1,34.4z M41,33.8h4.2c3.3,0,6-2.7,6-6
		c0-3.2-2.5-5.8-5.7-6C45.4,26.3,43.8,30.5,41,33.8z"/>
</g>
</svg>
