<?xml version="1.0" encoding="utf-8"?>
<!-- Generator: Adobe Illustrator 18.1.1, SVG Export Plug-In . SVG Version: 6.00 Build 0)  -->
<svg version="1.1" baseProfile="tiny" id="Layer_1" xmlns="http://www.w3.org/2000/svg" xmlns:xlink="http://www.w3.org/1999/xlink"
	 x="0px" y="0px" viewBox="0 0 62 62" xml:space="preserve">
<path fill="#C12027" d="M46.1,33c-2,0-3.9,0.2-5.6,0.5v-5.1l0,0l0,0v-5.2v-5.2v-5.2c0-3.2-5.9-5.8-13.3-5.8
	c-7.5,0-13.3,2.5-13.3,5.8v5.2v5.2v5.2l0,0l0,0v5.2v3.8c-6.4,0.4-11.2,2.8-11.2,5.7v5.2c0,3.2,5.9,5.8,13.3,5.8
	c6.4,0,11.6-1.9,13-4.4c1.4-0.1,2.7-0.2,3.8-0.5c0.1,3.2,5.9,5.7,13.3,5.7c7.5,0,13.3-2.5,13.3-5.8v-5.2v-5.2
	C59.4,35.5,53.5,33,46.1,33z M29.3,43.1c0-1.5-1.2-2.8-3.2-3.8c0.1,0,0.1,0,0.2,0c0.3,0,0.6,0,0.9,0c2,0,3.9-0.2,5.6-0.5v3.9
	c-1.1,0.2-2.3,0.4-3.5,0.5V43.1z M33.9,41.2c2.1,2,6.7,3.3,12.1,3.3c5.4,0,10-1.4,12.1-3.3v2.7c0,2.7-6.4,4.6-12.1,4.6
	c-5.7,0-12.1-1.9-12.1-4.6V41.2z M46.1,34.2c7.2,0,12.1,2.4,12.1,4.6c0,2.7-6.4,4.6-12.1,4.6c-5.7,0-12.1-1.9-12.1-4.6
	C33.9,36.6,38.8,34.2,46.1,34.2z M27.1,8.3c5.7,0,12.1,1.9,12.1,4.6c0,2.2-4.9,4.6-12.1,4.6c-7.2,0-12.1-2.4-12.1-4.6
	C15,10.2,21.4,8.3,27.1,8.3z M15,15.3c1.3,1.2,3.4,2.2,6.1,2.7c1.8,0.4,3.8,0.6,6,0.6c2.2,0,4.2-0.2,6-0.6c2.7-0.6,4.9-1.5,6.1-2.7
	v2.7c0,2.2-4.9,4.6-12.1,4.6c-7.2,0-12.1-2.4-12.1-4.6V15.3z M15,20.5L15,20.5c0.3,0.2,0.6,0.5,0.9,0.7c0,0,0,0,0,0
	c0.3,0.2,0.7,0.4,1.1,0.6c0,0,0,0,0,0c0.4,0.2,0.8,0.4,1.3,0.5c0,0,0,0,0.1,0c0.4,0.2,0.9,0.3,1.4,0.5c0,0,0.1,0,0.1,0
	c0.2,0.1,0.5,0.1,0.7,0.2c0,0,0.1,0,0.1,0c0.3,0.1,0.5,0.1,0.8,0.2c0,0,0.1,0,0.1,0c0.2,0,0.5,0.1,0.7,0.1c0.1,0,0.1,0,0.2,0
	c0.3,0,0.5,0.1,0.8,0.1c0,0,0.1,0,0.1,0c0.2,0,0.5,0.1,0.7,0.1c0.1,0,0.1,0,0.2,0c0.3,0,0.6,0,0.9,0.1c0,0,0.1,0,0.1,0
	c0.3,0,0.5,0,0.8,0c0.1,0,0.2,0,0.2,0c0.3,0,0.6,0,0.9,0c0.3,0,0.6,0,0.9,0c0.1,0,0.2,0,0.2,0c0.3,0,0.5,0,0.8,0c0,0,0.1,0,0.1,0
	c0.3,0,0.6,0,0.9-0.1c0.1,0,0.1,0,0.2,0c0.2,0,0.5-0.1,0.7-0.1c0,0,0.1,0,0.1,0c0.3,0,0.5-0.1,0.8-0.1c0.1,0,0.1,0,0.1,0
	c0.2,0,0.5-0.1,0.7-0.1c0,0,0.1,0,0.1,0c0.3-0.1,0.5-0.1,0.8-0.2c0,0,0.1,0,0.1,0c0.2-0.1,0.5-0.1,0.7-0.2c0,0,0.1,0,0.1,0
	c0.5-0.1,1-0.3,1.4-0.5c0,0,0,0,0.1,0c0.4-0.2,0.9-0.4,1.3-0.6c0,0,0,0,0,0c0.4-0.2,0.8-0.4,1.1-0.6c0,0,0,0,0,0
	c0.3-0.2,0.6-0.5,0.9-0.7c0,0,0,0,0,0v2.7c0,2.7-6.4,4.6-12.1,4.6c-7.2,0-12.1-2.4-12.1-4.6V20.5z M15,25.7c0.3,0.2,0.6,0.5,0.9,0.7
	c0,0,0,0,0,0c0.3,0.2,0.7,0.4,1.1,0.6c0,0,0,0,0,0c0.4,0.2,0.8,0.4,1.3,0.6c0,0,0,0,0.1,0c0.4,0.2,0.9,0.3,1.4,0.5c0,0,0.1,0,0.1,0
	c0.2,0.1,0.5,0.1,0.7,0.2c0,0,0.1,0,0.1,0c0.3,0.1,0.5,0.1,0.8,0.2c0,0,0.1,0,0.1,0c0.2,0,0.5,0.1,0.7,0.1c0.1,0,0.1,0,0.2,0
	c0.3,0,0.5,0.1,0.8,0.1c0,0,0.1,0,0.1,0c0.2,0,0.5,0.1,0.7,0.1c0.1,0,0.1,0,0.2,0c0.3,0,0.6,0.1,0.9,0.1c0,0,0.1,0,0.1,0
	c0.3,0,0.5,0,0.8,0c0.1,0,0.2,0,0.2,0c0.3,0,0.6,0,0.9,0s0.6,0,0.9,0c0.1,0,0.2,0,0.2,0c0.3,0,0.5,0,0.8,0c0,0,0.1,0,0.1,0
	c0.3,0,0.6,0,0.9-0.1c0.1,0,0.1,0,0.2,0c0.2,0,0.5-0.1,0.7-0.1c0,0,0.1,0,0.1,0c0.3,0,0.5-0.1,0.8-0.1c0.1,0,0.1,0,0.2,0
	c0.2,0,0.5-0.1,0.7-0.1c0,0,0.1,0,0.1,0c0.3-0.1,0.5-0.1,0.8-0.2c0,0,0.1,0,0.1,0c0.2-0.1,0.5-0.1,0.7-0.2c0,0,0.1,0,0.1,0
	c0.5-0.1,1-0.3,1.4-0.5c0,0,0,0,0.1,0c0.4-0.2,0.9-0.4,1.3-0.5c0,0,0,0,0,0c0.4-0.2,0.8-0.4,1.1-0.6c0,0,0,0,0,0
	c0.3-0.2,0.6-0.5,0.9-0.7c0,0,0,0,0,0v2.7l0,0l0,0l0,0c0,1.2-1.5,2.4-4,3.3c-2,0.7-4.5,1.1-7,1.2c-0.4,0-0.7,0-1.1,0
	c-0.5,0-1.1,0-1.6,0c-0.7,0-1.3-0.1-2-0.2C19,32.2,15,30.5,15,28.4V25.7L15,25.7z M15,30.9L15,30.9c0.3,0.2,0.6,0.5,0.9,0.7
	c0,0,0,0,0,0c0.3,0.2,0.7,0.4,1.1,0.6c0,0,0,0,0,0c0.4,0.2,0.8,0.4,1.3,0.5c0,0,0,0,0.1,0c0.2,0.1,0.4,0.2,0.7,0.2c0,0,0,0,0,0
	c0.2,0.1,0.5,0.1,0.7,0.2c0,0,0.1,0,0.1,0c0.2,0.1,0.4,0.1,0.7,0.2c0,0,0.1,0,0.1,0c0.3,0.1,0.5,0.1,0.8,0.2c0,0,0.1,0,0.1,0
	c0.2,0,0.5,0.1,0.7,0.1c0.1,0,0.1,0,0.2,0c0.3,0,0.5,0.1,0.8,0.1c0,0,0.1,0,0.1,0c0.2,0,0.5,0.1,0.7,0.1c0.1,0,0.1,0,0.2,0
	c0.3,0,0.6,0,0.9,0.1c0,0,0.1,0,0.1,0c0.3,0,0.5,0,0.8,0c0.1,0,0.2,0,0.2,0c0.3,0,0.6,0,0.9,0c0.3,0,0.6,0,0.9,0c0.1,0,0.2,0,0.2,0
	c0.3,0,0.5,0,0.8,0c0,0,0.1,0,0.1,0c0.3,0,0.6,0,0.9-0.1c0.1,0,0.1,0,0.2,0c0.2,0,0.5-0.1,0.7-0.1c0,0,0.1,0,0.1,0
	c0.3,0,0.5-0.1,0.8-0.1c0.1,0,0.1,0,0.2,0c0.2,0,0.5-0.1,0.7-0.1c0,0,0.1,0,0.1,0c0.3-0.1,0.5-0.1,0.8-0.2c0,0,0.1,0,0.1,0
	c0.2-0.1,0.5-0.1,0.7-0.2c0,0,0.1,0,0.1,0c0.5-0.1,1-0.3,1.4-0.5c0,0,0,0,0.1,0c0.4-0.2,0.9-0.4,1.3-0.5c0,0,0,0,0,0
	c0.4-0.2,0.8-0.4,1.1-0.6c0,0,0,0,0,0c0.3-0.2,0.6-0.5,0.9-0.7c0,0,0,0,0,0l0,2.7c0,0.1,0,0.1,0,0.2c-3.2,0.8-5.4,2.2-6.2,3.8
	c-1.7,0.4-3.7,0.6-5.9,0.6c-5.7,0-12.1-1.9-12.1-4.6V30.9L15,30.9z M15,36c0.3,0.2,0.6,0.5,0.9,0.7c0,0,0,0,0,0
	c0.3,0.2,0.7,0.4,1.1,0.6c-0.3,0-0.7,0-1.1,0c-0.3,0-0.6,0-0.9,0L15,36L15,36z M15.9,38.6c7.1,0,12.1,2.4,12.1,4.6
	c0,2.2-4.9,4.6-12.1,4.6S3.8,45.3,3.8,43.1C3.8,40.4,10.2,38.6,15.9,38.6z M15.9,52.9c-5.7,0-12.1-1.9-12.1-4.6v-2.7
	c2.1,2,6.7,3.3,12.1,3.3c5.4,0,10-1.4,12.1-3.3v2.7C28.1,51,21.7,52.9,15.9,52.9z M29.3,48.3v-3.8c1.2-0.1,2.4-0.2,3.5-0.4v3.9
	c-1.1,0.2-2.3,0.4-3.5,0.5C29.3,48.4,29.3,48.4,29.3,48.3z M58.2,49.1c0,2.7-6.4,4.6-12.1,4.6c-7.2,0-12.1-2.4-12.1-4.6v-2.7
	c2.1,2,6.7,3.3,12.1,3.3c5.4,0,10-1.3,12.1-3.3V49.1z"/>
</svg>
