<?xml version="1.0" encoding="utf-8"?>
<!-- Generator: Adobe Illustrator 18.1.1, SVG Export Plug-In . SVG Version: 6.00 Build 0)  -->
<svg version="1.1" baseProfile="tiny" id="Layer_1" xmlns="http://www.w3.org/2000/svg" xmlns:xlink="http://www.w3.org/1999/xlink"
	 x="0px" y="0px" viewBox="0 0 62 62" xml:space="preserve">
<g>
	<g>
		<path fill="none" stroke="#C12027" stroke-width="2" stroke-miterlimit="10" d="M8,12.2c-0.3,2.2-0.5,4.5-0.5,6.8
			C7.5,35.9,17,50.6,31,58C45,50.6,54.5,35.9,54.5,19c0-2.3-0.2-4.6-0.5-6.8c0,0-16.1-2.1-23.1-8.3C24.6,10.3,8,12.2,8,12.2z"/>
	</g>
	<g>
		<path fill="none" stroke="#C12027" stroke-width="2" stroke-miterlimit="10" d="M14.8,17.8c-0.2,1.6-0.4,3.1-0.4,4.8
			c0,11.9,6.7,22.2,16.5,27.4c9.8-5.2,16.5-15.5,16.5-27.4c0-1.6-0.1-3.2-0.4-4.8c0,0-11.3-1.5-16.2-5.8
			C26.5,16.4,14.8,17.8,14.8,17.8z"/>
	</g>
</g>
</svg>
