<?xml version="1.0" encoding="utf-8"?>
<!-- Generator: Adobe Illustrator 18.1.1, SVG Export Plug-In . SVG Version: 6.00 Build 0)  -->
<svg version="1.1" baseProfile="basic" id="Layer_1"
	 xmlns="http://www.w3.org/2000/svg" xmlns:xlink="http://www.w3.org/1999/xlink" x="0px" y="0px" viewBox="0 0 55 55"
	 xml:space="preserve">
<g>
	<path fill="#C12027" d="M27.5,3.8C14.4,3.8,3.8,14.4,3.8,27.5c0,13.1,10.6,23.7,23.7,23.7s23.7-10.6,23.7-23.7
		C51.2,14.4,40.6,3.8,27.5,3.8z M38,8L38,8c0,0.2,1.2,5.1-3.4,9.8c-0.9-0.6-2.1-1-3.3-1c-0.5,0-1.1,0.1-1.6,0.2
		c-1.5-2.1-6.8-7.7-17.5-5.6c4-3.8,9.3-6.1,15.2-6.1C31.3,5.3,34.9,6.3,38,8z M31.4,27.1c-2.5,0-4.5-2-4.5-4.5s2-4.5,4.5-4.5
		s4.5,2,4.5,4.5C35.8,25.1,33.8,27.1,31.4,27.1z M10.4,13.3c11.1-3.1,16.4,2.1,18,4.2c-1.8,1-3,2.9-3,5.1c0,0.1,0,0.3,0,0.4
		c-2.7,0.4-12.4,2.8-18.3,13.4c-1.2-2.7-1.9-5.8-1.9-9C5.3,22.1,7.2,17.2,10.4,13.3z M8,38.1C13.5,27.3,23.3,25,25.8,24.5
		c0.6,1.9,2.2,3.4,4.2,3.9c-1.1,2.5-3.3,9.4-1.4,21.2c-0.4,0-0.7,0.1-1.1,0.1C19.1,49.7,11.7,45,8,38.1z M30.1,49.6
		c-2.1-12.3,0.6-19.2,1.5-20.9c2.5-0.1,4.6-1.7,5.4-3.9c2.5,1.3,8.4,5.3,9.5,14.4C42.9,44.7,37,48.7,30.1,49.6z M47.6,37
		c-1.8-8.7-7.9-12.5-10.3-13.7c0-0.2,0.1-0.3,0.1-0.5c0-1.5-0.6-2.9-1.6-4c3.7-3.8,4-7.8,3.9-9.8c6.1,4,10.1,10.8,10.1,18.6
		C49.7,30.9,48.9,34.1,47.6,37z"/>
</g>
</svg>
