<?xml version="1.0" encoding="utf-8"?>
<!-- Generator: Adobe Illustrator 18.1.1, SVG Export Plug-In . SVG Version: 6.00 Build 0)  -->
<svg version="1.1" baseProfile="basic" id="Layer_1"
	 xmlns="http://www.w3.org/2000/svg" xmlns:xlink="http://www.w3.org/1999/xlink" x="0px" y="0px" viewBox="0 0 55 55"
	 xml:space="preserve">
<g>
	<path fill="#C12027" stroke="#C12027" stroke-miterlimit="10" d="M42.7,43.8H4.4v-3.8h38.3V43.8z M5,43.2h37.1v-2.5H5V43.2z
		 M23.5,37.5C13,37.5,4.4,28.9,4.4,18.3v-6.6h38.3v3.2c5.2,0.2,9.4,4.5,9.4,9.7c0,5.4-4.4,9.7-9.7,9.7h-6.3c-0.6,0-1.2-0.1-1.8-0.2
		C31.1,36.4,27.4,37.5,23.5,37.5z M5,12.4v6c0,10.2,8.3,18.6,18.6,18.6c3.8,0,7.4-1.1,10.5-3.3l0.1-0.1l0.1,0
		c0.6,0.1,1.2,0.2,1.8,0.2h6.3c5,0,9.1-4.1,9.1-9.1c0-5-4.1-9.1-9.1-9.1h-0.3v-3.1H5z M42.4,31.2h-5.5l0.5-0.5
		c3.1-3.4,4.8-7.8,4.8-12.4V18h0.3C46,18,49,21,49,24.6C49,28.3,46,31.2,42.4,31.2z M38.2,30.6h4.2c3.3,0,6-2.7,6-6
		c0-3.2-2.5-5.8-5.7-6C42.6,23.1,41.1,27.3,38.2,30.6z"/>
</g>
</svg>
