<?xml version="1.0" encoding="utf-8"?>
<!-- Generator: Adobe Illustrator 18.1.1, SVG Export Plug-In . SVG Version: 6.00 Build 0)  -->
<svg version="1.1" baseProfile="tiny" id="Layer_1" xmlns="http://www.w3.org/2000/svg" xmlns:xlink="http://www.w3.org/1999/xlink" x="0px" y="0px" width="23px" height="23px" viewBox="0 0 39.5 46.8" xml:space="preserve">
<g>
	<path fill="#C72127" d="M32.4,30.8c0,0.3-0.1,0.8-0.2,1.3c-0.1,0.5-0.3,1-0.4,1.3c-0.3,0.6-1,1.3-2.3,2c-1.2,0.6-2.3,0.9-3.4,0.9
		c-0.3,0-0.7,0-1-0.1c-0.3,0-0.7-0.1-1.1-0.2c-0.4-0.1-0.7-0.2-0.9-0.3c-0.2-0.1-0.5-0.2-1-0.4c-0.5-0.2-0.8-0.3-0.9-0.3
		c-1.2-0.4-2.3-0.9-3.2-1.5c-1.6-1-3.2-2.3-4.9-4c-1.7-1.7-3-3.3-4-4.9c-0.6-0.9-1.1-2-1.5-3.2c0-0.1-0.1-0.4-0.3-0.9
		c-0.2-0.5-0.3-0.8-0.4-1c-0.1-0.2-0.2-0.5-0.3-0.9c-0.1-0.4-0.2-0.7-0.2-1.1c0-0.3-0.1-0.6-0.1-1c0-1.1,0.3-2.3,0.9-3.4
		c0.7-1.2,1.3-2,2-2.3c0.3-0.1,0.7-0.3,1.3-0.4c0.5-0.1,1-0.2,1.3-0.2c0.2,0,0.3,0,0.4,0.1c0.2,0.1,0.5,0.5,1,1.4
		c0.1,0.2,0.3,0.6,0.6,1c0.2,0.4,0.4,0.8,0.6,1.2c0.2,0.4,0.4,0.7,0.6,1c0,0.1,0.1,0.2,0.3,0.5c0.2,0.3,0.3,0.5,0.4,0.7
		c0.1,0.2,0.1,0.4,0.1,0.5c0,0.2-0.2,0.6-0.5,0.9c-0.4,0.4-0.7,0.7-1.1,1c-0.4,0.3-0.8,0.6-1.1,1c-0.4,0.3-0.5,0.6-0.5,0.8
		c0,0.1,0,0.2,0.1,0.4c0.1,0.2,0.1,0.3,0.2,0.4c0,0.1,0.1,0.2,0.3,0.4c0.1,0.2,0.2,0.3,0.2,0.4c0.9,1.7,2,3.1,3.2,4.3
		c1.2,1.2,2.7,2.3,4.3,3.2c0,0,0.1,0.1,0.4,0.2c0.2,0.1,0.4,0.2,0.4,0.3c0.1,0,0.2,0.1,0.4,0.2c0.2,0.1,0.3,0.1,0.4,0.1
		c0.2,0,0.5-0.2,0.8-0.5c0.3-0.4,0.7-0.7,1-1.1c0.3-0.4,0.6-0.8,1-1.1c0.4-0.4,0.7-0.5,0.9-0.5c0.2,0,0.3,0,0.5,0.1
		c0.2,0.1,0.4,0.2,0.7,0.4c0.3,0.2,0.4,0.3,0.5,0.3c0.3,0.2,0.6,0.4,1,0.6c0.4,0.2,0.7,0.4,1.2,0.6c0.4,0.2,0.8,0.4,1,0.6
		c0.9,0.4,1.3,0.8,1.4,1C32.4,30.5,32.4,30.6,32.4,30.8z"/>
</g>
</svg>
