<?xml version="1.0" encoding="utf-8"?>
<!-- Generator: Adobe Illustrator 18.1.1, SVG Export Plug-In . SVG Version: 6.00 Build 0)  -->
<svg version="1.1" baseProfile="tiny" id="Layer_1" xmlns="http://www.w3.org/2000/svg" xmlns:xlink="http://www.w3.org/1999/xlink"
	 x="0px" y="0px" viewBox="0 0 39.5 46.8" xml:space="preserve">
<g>
	<g>
		<path fill="#C72127" d="M38.7,36.7H0.8c-0.4,0-0.8-0.4-0.8-0.8V11.9c0-0.4,0.4-0.8,0.8-0.8h37.9c0.4,0,0.8,0.4,0.8,0.8v23.9
			C39.5,36.3,39.1,36.7,38.7,36.7z M1.6,35.1h36.3V12.7H1.6V35.1z"/>
	</g>
	<g>
		<path fill="#C72127" d="M19.7,26.9c-0.2,0-0.3,0-0.5-0.2L0.3,12.6c-0.4-0.3-0.4-0.8-0.2-1.1c0.3-0.4,0.8-0.4,1.1-0.2l18.5,13.8
			l18.5-13.8c0.4-0.3,0.9-0.2,1.1,0.2c0.3,0.4,0.2,0.9-0.2,1.1L20.2,26.7C20.1,26.8,19.9,26.9,19.7,26.9z"/>
	</g>
	<g>
		<path fill="#C72127" d="M0.8,36.7c-0.2,0-0.5-0.1-0.6-0.3c-0.3-0.3-0.2-0.8,0.1-1.1l15.3-12.6c0.3-0.3,0.8-0.2,1.1,0.1
			c0.3,0.3,0.2,0.8-0.1,1.1L1.3,36.5C1.2,36.6,1,36.7,0.8,36.7z"/>
	</g>
	<g>
		<path fill="#C72127" d="M38.7,36.7c-0.2,0-0.4-0.1-0.5-0.2L22.9,23.9c-0.3-0.3-0.4-0.8-0.1-1.1c0.3-0.3,0.8-0.4,1.1-0.1l15.3,12.6
			c0.3,0.3,0.4,0.8,0.1,1.1C39.1,36.6,38.9,36.7,38.7,36.7z"/>
	</g>
</g>
</svg>
