<?xml version="1.0" encoding="utf-8"?>
<!-- Generator: Adobe Illustrator 18.1.1, SVG Export Plug-In . SVG Version: 6.00 Build 0)  -->
<svg version="1.1" baseProfile="basic" id="Layer_1"
	 xmlns="http://www.w3.org/2000/svg" xmlns:xlink="http://www.w3.org/1999/xlink" x="0px" y="0px" width="21px" height="26px" viewBox="0 0 28 34" xml:space="preserve">
<path fill="#C12027" d="M23.4,16.4c0,0.2-0.2,0.4-0.4,0.4h-0.8c-0.2,0-0.4-0.2-0.4-0.4v-0.8c0-0.2,0.2-0.4,0.4-0.4h0.8
	c0.2,0,0.4,0.2,0.4,0.4V16.4z M25,12L3,12c-0.8,0-1.5,0.7-1.5,1.5v9.9c0,0.8,0.7,1.5,1.5,1.5h3.2v1.3c0,0.7,0.6,1.3,1.3,1.3h13.2
	c0.7,0,1.3-0.6,1.3-1.3v-1.3H25c0.8,0,1.5-0.7,1.5-1.5v-9.9C26.5,12.7,25.8,12,25,12z M20.7,26.2C20.7,26.2,20.7,26.3,20.7,26.2
	L7.4,26.3c0,0-0.1,0-0.1-0.1V20h13.4V26.2z M25.3,23.4c0,0.2-0.1,0.3-0.3,0.3h-3.2v-4.3c0-0.3-0.3-0.6-0.6-0.6H6.7
	c-0.3,0-0.6,0.3-0.6,0.6v4.3H3c-0.2,0-0.3-0.1-0.3-0.3v-9.9c0-0.2,0.1-0.3,0.3-0.3l22.1,0c0.2,0,0.3,0.1,0.3,0.3V23.4z M18.5,22.1
	c0-0.3-0.3-0.6-0.6-0.6h-7.8c-0.3,0-0.6,0.3-0.6,0.6c0,0.3,0.3,0.6,0.6,0.6h7.8C18.2,22.7,18.5,22.4,18.5,22.1z M18.5,24.2
	c0-0.3-0.3-0.6-0.6-0.6h-7.8c-0.3,0-0.6,0.3-0.6,0.6c0,0.3,0.3,0.6,0.6,0.6h7.8C18.2,24.8,18.5,24.5,18.5,24.2z M21.9,7.8
	c0-0.7-0.6-1.3-1.3-1.3H7.4c-0.7,0-1.3,0.6-1.3,1.3v3.5h1.2V7.8c0,0,0-0.1,0.1-0.1h13.2c0,0,0.1,0,0.1,0.1v3.5h1.2V7.8z"/>
</svg>
