<?xml version="1.0" encoding="utf-8"?>
<!-- Generator: Adobe Illustrator 18.1.1, SVG Export Plug-In . SVG Version: 6.00 Build 0)  -->
<svg version="1.1" baseProfile="tiny" id="Layer_1" xmlns="http://www.w3.org/2000/svg" xmlns:xlink="http://www.w3.org/1999/xlink"
	 x="0px" y="0px" viewBox="0 0 30 30" xml:space="preserve">
<g>
	<path fill="#C72127" stroke="#C72127" stroke-miterlimit="10" d="M15,2.2c7.1,0,12.8,5.7,12.8,12.8S22.1,27.8,15,27.8
		S2.2,22.1,2.2,15S7.9,2.2,15,2.2 M15,1.3C7.4,1.3,1.3,7.4,1.3,15S7.4,28.7,15,28.7c7.6,0,13.7-6.1,13.7-13.7S22.6,1.3,15,1.3
		L15,1.3z"/>
	<path fill="#C72127" stroke="#C72127" stroke-miterlimit="10" d="M20,20.5l-5.3-5.3c-0.1-0.1-0.1-0.2-0.1-0.3V6.3h0.9v8.4l5.2,5.2
		L20,20.5z"/>
</g>
</svg>
