<?xml version="1.0" encoding="utf-8"?>
<!-- Generator: Adobe Illustrator 18.1.1, SVG Export Plug-In . SVG Version: 6.00 Build 0)  -->
<svg version="1.1" baseProfile="tiny" id="Layer_1" xmlns="http://www.w3.org/2000/svg" xmlns:xlink="http://www.w3.org/1999/xlink"
	 x="0px" y="0px" width="13px" height="25px" viewBox="0 0 22 36" xml:space="preserve">
<g>
	<path fill="#C42127" d="M18.7,0.8H3.3C2,0.8,1,1.8,1,3.1v29.8c0,1.3,1,2.3,2.3,2.3h15.3c1.3,0,2.3-1,2.3-2.3V3.1
		C21,1.8,20,0.8,18.7,0.8L18.7,0.8z M8.5,2.5h4.9c0.2,0,0.3,0.1,0.3,0.3c0,0.2-0.1,0.3-0.3,0.3H8.5C8.4,3,8.3,2.9,8.3,2.7
		C8.3,2.6,8.4,2.5,8.5,2.5L8.5,2.5z M11,34.1c-0.6,0-1.2-0.5-1.2-1.2c0-0.6,0.5-1.2,1.2-1.2c0.6,0,1.2,0.5,1.2,1.2
		C12.2,33.5,11.6,34.1,11,34.1L11,34.1z M19.4,30.9H2.6V4.5h16.8V30.9z M19.4,30.9"/>
</g>
</svg>
