<?xml version="1.0" encoding="utf-8"?>
<!-- Generator: Adobe Illustrator 18.1.1, SVG Export Plug-In . SVG Version: 6.00 Build 0)  -->
<svg version="1.1" baseProfile="tiny" id="Layer_1" xmlns="http://www.w3.org/2000/svg" xmlns:xlink="http://www.w3.org/1999/xlink"
	 x="0px" y="0px" viewBox="0 0 219.2 60.49" xml:space="preserve">
<g>
	<path fill="#B21F26" d="M18.38-0.16C8.23-0.16,0,8.07,0,18.22c0,13.79,18.38,40.44,18.38,40.44s18.38-26.65,18.38-40.44
		C36.76,8.07,28.54-0.16,18.38-0.16z"/>
	<g>
		<path fill="#010101" d="M53.47,9.48H43.41V7.5h22.26v1.98H55.61v26.88h-2.14V9.48z"/>
		<path fill="#010101" d="M68.85,21.93c0-7.87,5.81-14.92,14.55-14.92c8.74,0,14.47,6.97,14.47,14.92c0,7.88-5.81,14.92-14.55,14.92
			C74.58,36.86,68.85,29.89,68.85,21.93z M95.64,21.93c0-7.13-5.19-12.99-12.33-12.99s-12.24,5.77-12.24,12.99
			c0,7.13,5.19,12.99,12.33,12.99C90.53,34.92,95.64,29.15,95.64,21.93z"/>
		<path fill="#010101" d="M105.17,7.5h2.14v25.77L126.07,7.5h2.1v28.86h-2.14V10.6l-18.72,25.77h-2.14V7.5z M111.14,0.37L112.83,0
			c0.5,1.86,1.73,3.01,3.88,3.01c2.14,0,3.38-1.15,3.87-3.01l1.69,0.37c-0.49,2.68-2.64,4.74-5.56,4.74
			C113.78,5.11,111.64,3.05,111.14,0.37z"/>
		<path fill="#010101" d="M135.47,21.93c0-7.87,5.81-14.92,14.55-14.92c8.74,0,14.47,6.97,14.47,14.92
			c0,7.88-5.81,14.92-14.55,14.92C141.2,36.86,135.47,29.89,135.47,21.93z M162.27,21.93c0-7.13-5.2-12.99-12.33-12.99
			c-7.13,0-12.24,5.77-12.24,12.99c0,7.13,5.19,12.99,12.33,12.99C157.16,34.92,162.27,29.15,162.27,21.93z"/>
		<path fill="#010101" d="M177.73,9.48h-10.06V7.5h22.26v1.98h-10.06v26.88h-2.14V9.48z"/>
		<path fill="#010101" d="M203.7,7.3h2.06l13.44,29.07h-2.35l-3.67-8.08h-17.03l-3.67,8.08h-2.23L203.7,7.3z M212.28,26.35
			l-7.58-16.7l-7.63,16.7H212.28z"/>
	</g>
	<g>
		<path fill="#010101" d="M43.41,47.6h0.94v4.35h6.49V47.6h0.94v9.76h-0.94v-4.58h-6.49v4.58h-0.94V47.6z"/>
		<path fill="#010101" d="M54.53,54.49c0-2.03,1.74-3.18,4.27-3.18c1.36,0,2.3,0.17,3.24,0.42v-0.42c0-1.97-1.21-2.99-3.22-2.99
			c-1.19,0-2.16,0.33-3.06,0.78l-0.34-0.82c1.07-0.5,2.13-0.84,3.46-0.84c1.32,0,2.37,0.36,3.08,1.07c0.65,0.65,0.99,1.55,0.99,2.76
			v6.09h-0.92v-1.63c-0.67,0.94-1.88,1.86-3.73,1.86C56.29,57.6,54.53,56.56,54.53,54.49z M62.06,53.71V52.6
			c-0.82-0.21-1.91-0.44-3.31-0.44c-2.07,0-3.2,0.92-3.2,2.32c0,1.42,1.13,2.24,2.81,2.24C60.35,56.71,62.06,55.49,62.06,53.71z"/>
		<path fill="#B21F26" d="M71.42,55.41l0.65-0.75c1.47,1.36,2.83,1.99,4.81,1.99c2.01,0,3.39-1.13,3.39-2.7
			c0-1.42-0.75-2.24-3.79-2.85c-3.22-0.65-4.52-1.74-4.52-3.81c0-1.99,1.82-3.52,4.31-3.52c1.95,0,3.24,0.54,4.59,1.63l-0.63,0.79
			c-1.26-1.09-2.53-1.51-4-1.51c-1.97,0-3.27,1.13-3.27,2.57c0,1.42,0.73,2.28,3.91,2.93c3.1,0.63,4.4,1.74,4.4,3.73
			c0,2.16-1.86,3.66-4.44,3.66C74.67,57.56,73.03,56.85,71.42,55.41z"/>
		<path fill="#B21F26" d="M87.96,44.88h-4.67v-0.92h10.34v0.92h-4.67v12.48h-0.99V44.88z"/>
		<path fill="#010101" d="M95.78,52.48c0-2.74,2.12-5.11,5.03-5.11c2.89,0,5,2.34,5,5.11c0,2.74-2.13,5.11-5.04,5.11
			C97.88,57.6,95.78,55.26,95.78,52.48z M104.79,52.48c0-2.35-1.82-4.23-4.02-4.23c-2.2,0-3.98,1.9-3.98,4.23
			c0,2.36,1.76,4.23,4.02,4.23C102.97,56.71,104.79,54.82,104.79,52.48z"/>
		<path fill="#010101" d="M106.61,57.37l0.17-0.86c0.13,0.04,0.56,0.13,0.75,0.13c1.3,0,2.22-0.57,2.26-8.52V47.6h6.64v9.76h-0.94
			v-8.92h-4.81v0.27c-0.02,8.08-1.21,8.81-3.01,8.81C107.38,57.52,106.88,57.44,106.61,57.37z"/>
		<path fill="#010101" d="M120,47.6h0.94v8.52l6.62-8.52h0.94v9.76h-0.94v-8.52l-6.62,8.52H120V47.6z"/>
		<path fill="#010101" d="M138.28,53.1c-0.75,0.42-2.22,1-3.5,1c-1.91,0-3.18-0.96-3.18-2.83V47.6h0.94v3.68
			c0,1.19,0.82,1.95,2.2,1.95c1.17,0,2.62-0.44,3.54-1.07V47.6h0.94v9.76h-0.94V53.1z"/>
		<path fill="#010101" d="M142.78,47.6h0.94v4.35h6.49V47.6h0.94v9.76h-0.94v-4.58h-6.49v4.58h-0.94V47.6z"/>
		<path fill="#010101" d="M154.04,52.48c0-2.74,2.13-5.11,5.03-5.11c2.89,0,5,2.34,5,5.11c0,2.74-2.12,5.11-5.03,5.11
			C156.14,57.6,154.04,55.26,154.04,52.48z M163.06,52.48c0-2.35-1.82-4.23-4.02-4.23c-2.2,0-3.98,1.9-3.98,4.23
			c0,2.36,1.76,4.23,4.02,4.23C161.24,56.71,163.06,54.82,163.06,52.48z"/>
		<path fill="#010101" d="M166.96,47.6h0.84l3.98,5.61l3.98-5.61h0.84v9.76h-0.94v-8.14l-3.92,5.4l-3.89-5.4v8.14h-0.9V47.6z"/>
		<path fill="#010101" d="M179.43,60.06l0.33-0.82c0.52,0.25,0.94,0.36,1.67,0.36c1.01,0,1.69-0.59,2.41-2.3l-4.69-9.71h1.09
			l4.06,8.73l3.52-8.73h1.03l-4.23,10.11c-0.86,2.05-1.86,2.78-3.25,2.78C180.62,60.49,180.08,60.35,179.43,60.06z"/>
	</g>
	<g>
		<polygon fill="#CBCBCB" points="33.42,20.83 33,17.83 19.1,17.83 16.95,20.83 24.67,20.83 24.67,27.83 26.67,27.83 26.67,20.83 		
			"/>
		<path fill="#FFFFFF" d="M30.82,20.9c0-0.56-0.11-1.13-0.32-1.66c-0.22-0.53-0.54-1.03-0.97-1.46c-0.21-0.21-0.43-0.39-0.67-0.55
			c-0.24-0.16-0.49-0.3-0.76-0.4c-0.26-0.11-0.54-0.19-0.82-0.25c-0.28-0.05-0.57-0.08-0.87-0.08c-0.29,0-0.59,0.03-0.87,0.08
			c-0.28,0.06-0.56,0.14-0.82,0.25c-0.26,0.11-0.52,0.24-0.76,0.4c-0.24,0.16-0.46,0.34-0.67,0.55l-0.55,0.55l-0.55,0.55l-0.55,0.55
			l-0.55,0.55l-0.23,0.23l-0.23,0.23l-0.23,0.23l-0.23,0.23l-0.46,0.46l-0.46,0.46l-0.46,0.46l-0.46,0.46l-0.23,0.23l-0.23,0.23
			l-0.23,0.23l-0.23,0.23l-0.55,0.55l-0.55,0.55l-0.55,0.55l-0.55,0.55c-0.33,0.33-0.69,0.63-1.07,0.88
			c-0.38,0.26-0.79,0.47-1.21,0.65c-0.42,0.17-0.86,0.31-1.31,0.4c-0.45,0.09-0.91,0.13-1.38,0.13c-0.47,0-0.93-0.05-1.38-0.13
			c-0.45-0.09-0.89-0.22-1.31-0.4c-0.42-0.17-0.82-0.39-1.21-0.65c-0.38-0.25-0.74-0.55-1.07-0.88c-0.33-0.33-0.63-0.69-0.88-1.07
			C4.13,24.4,3.91,24,3.73,23.58c-0.17-0.42-0.31-0.86-0.4-1.31C3.25,21.83,3.2,21.36,3.2,20.9c0-0.47,0.04-0.93,0.13-1.38
			c0.09-0.45,0.22-0.89,0.4-1.31c0.17-0.42,0.39-0.82,0.65-1.2c0.26-0.38,0.55-0.74,0.88-1.07c0.33-0.33,0.69-0.63,1.07-0.88
			c0.38-0.25,0.79-0.47,1.21-0.64c0.42-0.17,0.86-0.31,1.31-0.4c0.45-0.09,0.91-0.14,1.38-0.14c0.47,0,0.93,0.05,1.38,0.14
			c0.45,0.09,0.89,0.22,1.31,0.4c0.42,0.17,0.82,0.39,1.21,0.64c0.38,0.25,0.74,0.55,1.07,0.88l-1.85,1.85
			c-0.21-0.21-0.43-0.39-0.67-0.55c-0.24-0.16-0.49-0.3-0.76-0.4c-0.26-0.11-0.54-0.19-0.82-0.25c-0.28-0.05-0.57-0.08-0.87-0.08
			c-0.29,0-0.58,0.03-0.87,0.08c-0.28,0.06-0.56,0.14-0.82,0.25c-0.26,0.11-0.52,0.24-0.76,0.4c-0.24,0.16-0.47,0.34-0.67,0.55
			c-0.21,0.21-0.4,0.43-0.56,0.67c-0.16,0.24-0.3,0.49-0.41,0.76c-0.11,0.26-0.19,0.54-0.25,0.82c-0.06,0.28-0.08,0.57-0.08,0.87
			c0,0.29,0.03,0.58,0.08,0.87c0.06,0.28,0.14,0.56,0.25,0.82c0.11,0.26,0.25,0.52,0.41,0.76c0.16,0.24,0.35,0.46,0.56,0.67
			c0.21,0.21,0.43,0.39,0.67,0.55c0.24,0.16,0.49,0.3,0.76,0.41c0.26,0.11,0.54,0.19,0.82,0.25c0.28,0.05,0.57,0.08,0.87,0.08
			c0.29,0,0.59-0.03,0.87-0.08c0.28-0.06,0.56-0.14,0.82-0.25c0.26-0.11,0.52-0.24,0.76-0.4c0.24-0.16,0.47-0.34,0.67-0.55
			l0.55-0.55l0.55-0.55L15,22.37l0.55-0.55l0.23-0.23l0.23-0.23l0.23-0.23l0.23-0.23l0.46-0.46l0.46-0.46l0.46-0.46l0.46-0.46
			l0.23-0.23l0.23-0.23l0.23-0.23l0.23-0.23l0.55-0.55l0.55-0.55l0.55-0.55l0.55-0.55c0.33-0.33,0.69-0.63,1.07-0.88
			c0.38-0.25,0.78-0.47,1.21-0.64c0.42-0.17,0.86-0.31,1.31-0.4c0.45-0.09,0.91-0.14,1.38-0.14c0.47,0,0.93,0.05,1.38,0.14
			c0.45,0.09,0.89,0.22,1.31,0.4c0.42,0.17,0.82,0.39,1.2,0.64c0.38,0.25,0.74,0.55,1.07,0.88c0.68,0.69,1.2,1.48,1.54,2.32
			c0.34,0.85,0.51,1.74,0.51,2.64"/>
	</g>
</g>
</svg>
