<?xml version="1.0" encoding="utf-8"?>
<!-- Generator: Adobe Illustrator 18.1.1, SVG Export Plug-In . SVG Version: 6.00 Build 0)  -->
<svg version="1.1" baseProfile="tiny" id="Layer_1" xmlns="http://www.w3.org/2000/svg" xmlns:xlink="http://www.w3.org/1999/xlink"
	 x="0px" y="0px" viewBox="0 0 41.33 43.84" xml:space="preserve">
<path fill="#FFFFFF" d="M21.65,5.47V5.02c0-0.51-0.35-0.96-0.81-1.01c-0.66-0.15-1.21,0.35-1.21,0.96v0.51c0,0.15-0.1,0.25-0.2,0.25
	C11.03,6.28,4.21,12.65,2.99,20.84C2.94,21.3,3.45,21.5,3.7,21.2c0.25-0.3,0.61-0.56,0.96-0.81c1.57-1.06,3.69-1.01,5.26,0.05
	c0.66,0.46,1.11,1.01,1.47,1.62c0.15,0.3,0.56,0.3,0.71,0c0.3-0.61,0.76-1.11,1.36-1.52c1.32-0.96,3.69-1.06,5.11-0.25
	c0.4,0.25,0.76,0.51,1.01,0.81c0.1,0.1,0.1,0.2,0.1,0.3v14.01c0,1.16-0.81,2.28-2.02,2.43c-1.47,0.25-2.78-0.86-2.83-2.33
	c0-0.51-0.36-0.96-0.86-1.06c-0.61-0.1-1.11,0.41-1.11,1.01c0,2.53,2.12,4.55,4.7,4.4c2.33-0.15,4.09-2.22,4.09-4.55V21.35
	c0-0.1,0.05-0.2,0.1-0.3c0.3-0.3,0.66-0.55,1.06-0.81c1.57-0.91,3.59-0.81,5.11,0.3c0.61,0.4,1.06,0.96,1.37,1.52
	c0.15,0.3,0.56,0.3,0.71,0c0.35-0.66,0.91-1.26,1.67-1.72c1.42-0.86,3.19-0.91,4.65-0.15c0.5,0.3,0.96,0.66,1.32,1.01
	c0.25,0.3,0.76,0.05,0.71-0.35c-1.26-8.19-8.09-14.56-16.48-15.17C21.75,5.67,21.65,5.57,21.65,5.47z"/>
</svg>
