<?xml version="1.0" encoding="utf-8"?>
<!-- Generator: Adobe Illustrator 18.1.1, SVG Export Plug-In . SVG Version: 6.00 Build 0)  -->
<svg version="1.1" baseProfile="tiny" id="Layer_1" xmlns="http://www.w3.org/2000/svg" xmlns:xlink="http://www.w3.org/1999/xlink"
	 x="0px" y="0px" viewBox="0 0 41.33 43.84" xml:space="preserve">
<path fill="#FFFFFF" d="M20.67,2.92c-10.49,0-19,8.51-19,19c0,10.49,8.51,19,19,19c10.49,0,19-8.51,19-19
	C39.67,11.43,31.16,2.92,20.67,2.92z M20.67,35.43c-7.45,0-13.51-6.06-13.51-13.51S13.22,8.41,20.67,8.41
	c7.45,0,13.51,6.06,13.51,13.51S28.12,35.43,20.67,35.43z M20.67,24.45c-1.4,0-2.53-1.13-2.53-2.53s1.13-2.53,2.53-2.53
	c1.4,0,2.53,1.13,2.53,2.53S22.06,24.45,20.67,24.45z M20.67,10.52c1.29,0,2.66,0.35,2.66,0.35c0.56,0.15,0.78,0.68,0.49,1.18
	l-2.62,4.53c-0.29,0.5-0.77,0.5-1.06,0l-2.61-4.54c-0.29-0.5-0.07-1.03,0.49-1.18C18.02,10.87,19.38,10.52,20.67,10.52z
	 M20.14,27.25c0.29-0.5,0.77-0.5,1.06,0l2.62,4.54c0.29,0.5,0.07,1.03-0.5,1.18c0,0-1.36,0.35-2.65,0.35
	c-1.29,0-2.66-0.35-2.66-0.35c-0.56-0.15-0.78-0.68-0.49-1.18L20.14,27.25z M10.79,16.22c0.64-1.12,1.64-2.13,1.64-2.13
	c0.41-0.41,0.98-0.34,1.27,0.16l2.61,4.54c0.29,0.5,0.05,0.92-0.53,0.92l-5.24,0c-0.58,0-0.93-0.46-0.77-1.02
	C9.77,18.69,10.15,17.34,10.79,16.22z M25.02,25.05c-0.29-0.5-0.05-0.92,0.53-0.92l5.23,0c0.58,0,0.93,0.46,0.77,1.02
	c0,0-0.38,1.35-1.02,2.47c-0.64,1.12-1.64,2.13-1.64,2.13c-0.41,0.41-0.97,0.34-1.26-0.16L25.02,25.05z M10.79,27.62
	c-0.64-1.12-1.02-2.48-1.02-2.48c-0.16-0.56,0.19-1.01,0.77-1.01l5.24,0c0.58,0,0.82,0.41,0.53,0.92l-2.62,4.53
	c-0.29,0.5-0.86,0.57-1.27,0.16C12.42,29.74,11.44,28.73,10.79,27.62z M25.55,19.71c-0.58,0-0.82-0.41-0.53-0.91l2.62-4.53
	c0.29-0.5,0.86-0.58,1.27-0.16c0,0,0.98,1,1.63,2.12c0.65,1.12,1.02,2.48,1.02,2.48c0.16,0.56-0.19,1.01-0.77,1.01L25.55,19.71z"/>
</svg>
