<?xml version="1.0" encoding="utf-8"?>
<!-- Generator: Adobe Illustrator 18.1.1, SVG Export Plug-In . SVG Version: 6.00 Build 0)  -->
<svg version="1.1" baseProfile="tiny" id="Layer_1" xmlns="http://www.w3.org/2000/svg" xmlns:xlink="http://www.w3.org/1999/xlink"
	 x="0px" y="0px" viewBox="0 0 41.33 41.33" xml:space="preserve">
<g>
	<circle fill="#FFFFFF" cx="20.67" cy="22.14" r="3.27"/>
	<path fill="#FFFFFF" d="M20.67,0C9.25,0,0,9.25,0,20.67s9.25,20.67,20.67,20.67c11.41,0,20.67-9.25,20.67-20.67S32.08,0,20.67,0z
		 M20.67,3.38c7.39,0,13.69,4.63,16.17,11.15c-0.03,0.92-0.28,1.98-1.24,2.27c-4.11,1.58-7.55-1.82-15.14-1.92
		c-7.59,0.11-10.99,3.51-15.1,1.92c-0.68-0.2-1-0.8-1.14-1.46C6.46,8.39,12.98,3.38,20.67,3.38z M25.2,22.14
		c0,2.5-2.03,4.54-4.53,4.54s-4.53-2.03-4.53-4.54c0-2.5,2.03-4.53,4.53-4.53C23.17,17.61,25.2,19.64,25.2,22.14z M8.64,31.63
		c-0.53,0.24-1.1,0.03-1.62-0.36c-1.93-2.48-3.2-5.49-3.54-8.79c0.47-0.48,1.2-0.68,2.22-0.35C7.99,22.89,10.96,30.58,8.64,31.63z
		 M26.83,36.69c-0.14,0.09-0.24,0.18-0.31,0.25c-1.83,0.66-3.79,1.02-5.85,1.02c-2.33,0-4.55-0.46-6.58-1.3
		c-2.32-1.57-1.27-2.93-0.12-4.92c1.16-2,6.48-1.37,6.48-1.37s5.36-0.63,6.52,1.37C28.13,33.74,29.21,35.11,26.83,36.69z
		 M35.27,29.92c-0.76,0.98-1.91,2.17-2.93,1.71c-2.32-1.06,0.65-8.74,2.95-9.49c1.27-0.41,2.11,0,2.52,0.76
		C37.48,25.46,36.59,27.84,35.27,29.92z"/>
</g>
</svg>
