<?xml version="1.0" encoding="utf-8"?>
<!-- Generator: Adobe Illustrator 18.1.1, SVG Export Plug-In . SVG Version: 6.00 Build 0)  -->
<svg version="1.1" baseProfile="basic" id="Layer_1"
	 xmlns="http://www.w3.org/2000/svg" xmlns:xlink="http://www.w3.org/1999/xlink" x="0px" y="0px" viewBox="0 0 50 50"
	 xml:space="preserve">
<g>
	<path fill="#C12027" d="M3.5,16.6c5.7-5.8,13.4-8.9,21.5-8.9c8.1,0,15.8,3.2,21.5,8.9c0.3,0.3,0.8,0.5,1.2,0.5
		c0.5,0,0.8-0.2,1.2-0.5c0.7-0.7,0.7-1.8,0-2.4C42.5,7.8,34.1,4.3,25,4.3c-9.1,0-17.5,3.5-23.9,9.9c-0.7,0.7-0.7,1.7,0,2.4
		C1.8,17.3,2.9,17.3,3.5,16.6z"/>
	<path fill="#C12027" d="M39.7,25.2c0.5,0,0.8-0.2,1.2-0.5c0.7-0.7,0.7-1.8,0-2.4C36.6,18,31,15.6,25,15.6c-6,0-11.6,2.4-15.9,6.6
		c-0.7,0.7-0.7,1.8,0,2.4c0.7,0.7,1.8,0.7,2.4,0c3.6-3.6,8.4-5.6,13.5-5.6c5.1,0,9.9,2,13.5,5.6C38.8,25,39.3,25.2,39.7,25.2z"/>
	<path fill="#C12027" d="M31.7,33.1c0.5,0,0.8-0.2,1.2-0.5c0.7-0.7,0.7-1.8,0-2.4C30.8,28.1,28,27,25,27c-3,0-5.8,1.1-7.9,3.3
		c-0.7,0.7-0.7,1.8,0,2.4c0.7,0.7,1.7,0.7,2.4,0c1.4-1.4,3.4-2.3,5.5-2.3c2.1,0,4,0.8,5.5,2.3C30.9,33,31.2,33.1,31.7,33.1z"/>
	<circle fill="#C12027" cx="25" cy="42.2" r="3.5"/>
</g>
</svg>
